<svg xmlns="http://www.w3.org/2000/svg" viewBox="0 0 750 500"><g id="freepik--background-complete--inject-10"><rect x="42.65" y="219.57" width="106.34" height="106.34" transform="translate(191.64 545.49) rotate(180)" style="fill:#ebebeb"></rect><rect x="48.9" y="225.83" width="93.83" height="93.83" transform="translate(191.64 545.49) rotate(180)" style="fill:#dbdbdb"></rect><path d="M64,248.22a8.86,8.86,0,1,0,7-6.95A8.86,8.86,0,0,0,64,248.22Z" style="fill:#c7c7c7"></path><polygon points="74.92 295.31 142.74 295.31 108.83 257.28 74.92 295.31" style="fill:#c7c7c7"></polygon><polygon points="48.91 295.31 104.89 295.31 76.9 270.55 48.91 295.31" style="fill:#a6a6a6"></polygon><rect x="48.9" y="295.31" width="93.83" height="24.35" style="fill:#a6a6a6"></rect><rect x="588.81" y="319.1" width="106.34" height="146.34" transform="translate(1309.53 739.22) rotate(176.04)" style="fill:#ebebeb"></rect><rect x="595.06" y="325.35" width="93.83" height="133.83" transform="translate(1309.53 739.22) rotate(176.04)" style="fill:#dbdbdb"></rect><path d="M609.42,382.49a8.86,8.86,0,1,0,6.46-7.42A8.86,8.86,0,0,0,609.42,382.49Z" style="fill:#c7c7c7"></path><polygon points="624.07 436.17 691.72 431.49 655.27 395.9 624.07 436.17" style="fill:#c7c7c7"></polygon><polygon points="598.12 437.97 653.97 434.1 624.33 411.33 598.12 437.97" style="fill:#a6a6a6"></polygon><rect x="598.85" y="434.7" width="93.83" height="24.35" transform="matrix(1, -0.07, 0.07, 1, -29.35, 45.71)" style="fill:#a6a6a6"></rect><rect x="485.13" y="46.74" width="212.07" height="146.53" transform="translate(1156.28 330.98) rotate(-171)" style="fill:#ebebeb"></rect><rect x="493.74" y="55.36" width="194.83" height="129.29" transform="translate(1156.28 330.98) rotate(-171)" style="fill:#dbdbdb"></rect><path d="M519.46,83.1a12.2,12.2,0,1,0,11-8A12.21,12.21,0,0,0,519.46,83.1Z" style="fill:#c7c7c7"></path><polygon points="567.6 147.75 682.52 165.95 632.52 109.7 567.6 147.75" style="fill:#c7c7c7"></polygon><polygon points="523.51 140.77 618.39 155.79 575.81 117.58 523.51 140.77" style="fill:#a6a6a6"></polygon><rect x="486.26" y="150.51" width="194.83" height="33.56" transform="translate(33.34 -89.21) rotate(9)" style="fill:#a6a6a6"></rect></g><g id="freepik--Album--inject-10"><rect x="88.86" y="64.86" width="572.27" height="384.07" style="fill:#263238"></rect><polygon points="411.67 452.13 338.33 452.13 336.19 448.93 413.81 448.93 411.67 452.13" style="fill:#263238"></polygon><rect x="100.72" y="71" width="273.55" height="369.67" style="fill:#fff"></rect><path d="M374.27,440.67l-273.55.3h-.31v-.3L100.22,71v-.5h.5l273.55.14h.36V71Zm0,0L373.91,71l.36.35-273.55.15.5-.5L101,440.67l-.31-.31Z" style="fill:#c7c7c7"></path><rect x="374.27" y="71" width="273.55" height="369.67" style="fill:#fff"></rect><path d="M647.82,440.67l-273.55.3H374v-.3L373.77,71v-.5h.5l273.55.14h.35V71Zm0,0L647.46,71l.36.35-273.55.15.5-.5-.2,369.67-.3-.31Z" style="fill:#c7c7c7"></path><rect x="106.46" y="71" width="267.71" height="366.47" style="fill:#fff"></rect><path d="M106.46,71l267.71-.31h.31V71l.19,366.46v.5h-.5l-267.71-.14h-.36v-.36Zm0,0,.36,366.46-.36-.36L374.17,437l-.5.49L373.87,71l.3.3Z" style="fill:#c7c7c7"></path><rect x="374.27" y="71" width="267.71" height="366.47" style="fill:#fff"></rect><path d="M374.27,71,642,70.69h.3V71l.2,366.46v.5H642l-267.71-.14h-.36v-.36Zm0,0,.36,366.46-.36-.36L642,437l-.5.49L641.67,71l.31.3Z" style="fill:#c7c7c7"></path><path d="M374.17,437.41A962.77,962.77,0,0,0,104.8,423.27V56.8A962.77,962.77,0,0,1,374.17,70.94Z" style="fill:#fff"></path><path d="M374.17,437.41a962.32,962.32,0,0,0-269.38-13.83l-.29,0v-.29q-.1-183.21-.19-366.44v-.52l.52-.05A963.18,963.18,0,0,1,374.19,70.58l.34.07V71Zm0,0q-.18-183.27-.35-366.52l.33.4a963.08,963.08,0,0,0-269.37-14l.52-.57q-.1,183.26-.19,366.5l-.29-.27A962.8,962.8,0,0,1,374.17,437.41Z" style="fill:#c7c7c7"></path><path d="M246.67,190.16A970.34,970.34,0,0,1,355.6,202.9V94A972.67,972.67,0,0,0,246.67,81.29Z" style="fill:#ebebeb"></path><path d="M253.09,184.16q48.15,3.21,96.12,11.25V99.34q-47.91-8-96.12-11.24Z" style="fill:#455a64"></path><path d="M268.6,112.18a10,10,0,0,0,10.68,11.61,8,8,0,0,0,7.13-6.42,10.07,10.07,0,0,0-10.68-11.69A8,8,0,0,0,268.6,112.18Z" style="fill:#37474f"></path><path d="M279.78,161.38q34.79,3.28,69.43,9.09-17.31-22.36-34.67-44.1Q297.17,143.56,279.78,161.38Z" style="fill:#37474f"></path><path d="M253.09,159.23q28.72,1.91,57.41,5.54-14.33-14.49-28.69-28.55Q267.46,147.51,253.09,159.23Z" style="fill:#263238"></path><path d="M349.21,195.41q-47.91-8-96.12-11.25V159.23q48.15,3.21,96.12,11.24Z" style="fill:#263238"></path><path d="M246.67,171.29q9.44,10,18.88,20.15-9.44-.75-18.88-1.32Z" style="fill:#fff"></path><path d="M355.6,112.87q-9.39-11.06-18.79-21.93,9.4,1.45,18.79,3.09Z" style="fill:#fff"></path><path d="M123.85,387.71q27.19-2,54.5-2.41t54.45.82l-.35.33q-.07-54.43-.16-108.87l.47.5a953.36,953.36,0,0,0-108.92,1.1l.35-.38q-.06,27.18-.11,54.36T123.85,387.71Zm0,0q-.1-27.16-.22-54.32t-.11-54.51v-.35l.35,0a956,956,0,0,1,108.94-1.43l.48,0v.48q-.09,54.44-.17,108.87v.35l-.35,0q-27.33-1.29-54.63-1T123.85,387.71Z" style="fill:#ebebeb"></path><path d="M142.31,277.42q-9.39,9.87-18.79,19.94V278.53Q132.91,277.89,142.31,277.42Z" style="fill:#fff"></path><path d="M214.3,386.16Q223.74,377,233.17,368v18.84Q223.74,386.41,214.3,386.16Z" style="fill:#fff"></path><polygon points="643.54 71 643.54 385.87 580.21 437.46 374.17 437.46 374.17 71 643.54 71" style="fill:#fff"></polygon><path d="M643.54,71l.33,314.87V386l-.12.1-63.3,51.63-.11.08h-.13l-206,.11h-.49v-.49L373.86,71v-.31h.31Zm0,0-269.37.31.31-.31.18,366.46-.49-.49,206,.12-.24.08,63.36-51.56-.13.26Z" style="fill:#c7c7c7"></path><polygon points="643.54 385.87 580.21 437.46 589.45 390.46 643.54 385.87" style="fill:#ebebeb"></polygon><path d="M367.67,86.85a3,3,0,1,1-3-3A3,3,0,0,1,367.67,86.85Z" style="fill:#dbdbdb"></path><path d="M367.67,123.81a3,3,0,1,1-3-3A3,3,0,0,1,367.67,123.81Z" style="fill:#dbdbdb"></path><path d="M367.67,160.76a3,3,0,1,1-3-3A3,3,0,0,1,367.67,160.76Z" style="fill:#dbdbdb"></path><path d="M367.67,197.72a3,3,0,1,1-3-3A3,3,0,0,1,367.67,197.72Z" style="fill:#dbdbdb"></path><path d="M367.67,234.68a3,3,0,1,1-3-3A3,3,0,0,1,367.67,234.68Z" style="fill:#dbdbdb"></path><path d="M367.67,271.64a3,3,0,1,1-3-3A3,3,0,0,1,367.67,271.64Z" style="fill:#dbdbdb"></path><path d="M367.67,308.6a3,3,0,1,1-3-3A3,3,0,0,1,367.67,308.6Z" style="fill:#dbdbdb"></path><path d="M367.67,345.56a3,3,0,1,1-3-3A3,3,0,0,1,367.67,345.56Z" style="fill:#dbdbdb"></path><path d="M367.67,382.52a3,3,0,1,1-3-3A3,3,0,0,1,367.67,382.52Z" style="fill:#dbdbdb"></path><path d="M367.67,419.48a3,3,0,1,1-3-3A3,3,0,0,1,367.67,419.48Z" style="fill:#dbdbdb"></path><path d="M386.88,87.91a3,3,0,1,1-3-3A3,3,0,0,1,386.88,87.91Z" style="fill:#dbdbdb"></path><path d="M386.88,124.87a3,3,0,1,1-3-3A3,3,0,0,1,386.88,124.87Z" style="fill:#dbdbdb"></path><circle cx="383.91" cy="161.83" r="2.97" style="fill:#dbdbdb"></circle><circle cx="383.91" cy="198.79" r="2.97" style="fill:#dbdbdb"></circle><circle cx="383.91" cy="235.75" r="2.97" style="fill:#dbdbdb"></circle><path d="M386.88,272.71a3,3,0,1,1-3-3A3,3,0,0,1,386.88,272.71Z" style="fill:#dbdbdb"></path><path d="M386.88,309.67a3,3,0,1,1-3-3A3,3,0,0,1,386.88,309.67Z" style="fill:#dbdbdb"></path><circle cx="383.91" cy="346.63" r="2.97" style="fill:#dbdbdb"></circle><circle cx="383.91" cy="383.59" r="2.97" style="fill:#dbdbdb"></circle><circle cx="383.91" cy="420.55" r="2.97" style="fill:#dbdbdb"></circle><path d="M384.3,90.45A1.5,1.5,0,0,1,382.81,89c0-.3-.56-7.35-7.48-8-7.54-.68-9.1,6.6-9.16,6.91a1.5,1.5,0,0,1-2.95-.58c.68-3.54,4.14-10,12.38-9.31,7.61.68,10,7.34,10.2,10.77a1.5,1.5,0,0,1-1.41,1.59Z" style="fill:#c7c7c7"></path><path d="M384.3,127.41a1.5,1.5,0,0,1-1.49-1.42c0-.29-.56-7.34-7.47-8-7.57-.68-9.11,6.6-9.17,6.91a1.5,1.5,0,0,1-2.95-.58c.68-3.54,4.16-10,12.38-9.32,7.61.69,10,7.35,10.2,10.78a1.49,1.49,0,0,1-1.41,1.58Z" style="fill:#c7c7c7"></path><path d="M384.3,164.37a1.5,1.5,0,0,1-1.49-1.42c0-.29-.56-7.34-7.47-8-7.57-.68-9.11,6.59-9.17,6.9a1.51,1.51,0,0,1-1.76,1.18,1.49,1.49,0,0,1-1.19-1.75c.68-3.54,4.14-10,12.38-9.32,7.61.68,10,7.35,10.2,10.78a1.49,1.49,0,0,1-1.41,1.58Z" style="fill:#c7c7c7"></path><path d="M384.3,201.33a1.5,1.5,0,0,1-1.49-1.42c0-.29-.56-7.34-7.47-8-7.57-.67-9.11,6.59-9.17,6.9a1.5,1.5,0,0,1-2.95-.57c.68-3.54,4.16-10.05,12.38-9.32,7.61.68,10,7.35,10.2,10.78a1.49,1.49,0,0,1-1.41,1.58Z" style="fill:#c7c7c7"></path><path d="M384.3,238.28a1.49,1.49,0,0,1-1.49-1.41c0-.29-.56-7.34-7.47-8-7.57-.68-9.11,6.59-9.17,6.9a1.51,1.51,0,0,1-1.76,1.18,1.49,1.49,0,0,1-1.19-1.75c.68-3.54,4.14-10.05,12.38-9.32,7.61.68,10,7.35,10.2,10.78a1.5,1.5,0,0,1-1.41,1.58Z" style="fill:#c7c7c7"></path><path d="M384.3,275.24a1.49,1.49,0,0,1-1.49-1.41c0-.29-.56-7.34-7.47-8-7.57-.68-9.11,6.59-9.17,6.9a1.5,1.5,0,0,1-2.95-.57c.68-3.54,4.16-10.05,12.38-9.32,7.61.68,10,7.35,10.2,10.78a1.5,1.5,0,0,1-1.41,1.58Z" style="fill:#c7c7c7"></path><path d="M384.3,312.2a1.49,1.49,0,0,1-1.49-1.41c0-.29-.56-7.34-7.48-8-7.54-.68-9.1,6.59-9.16,6.9a1.5,1.5,0,0,1-2.95-.57c.68-3.55,4.16-10.06,12.38-9.32,7.61.68,10,7.35,10.2,10.78a1.5,1.5,0,0,1-1.41,1.58Z" style="fill:#c7c7c7"></path><path d="M384.3,349.16a1.49,1.49,0,0,1-1.49-1.41c0-.29-.56-7.34-7.48-8-7.54-.68-9.1,6.59-9.16,6.9a1.51,1.51,0,0,1-1.76,1.18,1.49,1.49,0,0,1-1.19-1.75c.68-3.55,4.16-10.06,12.38-9.32,7.61.68,10,7.35,10.2,10.78a1.5,1.5,0,0,1-1.41,1.58Z" style="fill:#c7c7c7"></path><path d="M384.3,386.12a1.49,1.49,0,0,1-1.49-1.41c0-.29-.56-7.34-7.48-8-7.55-.68-9.1,6.59-9.16,6.9a1.51,1.51,0,0,1-1.76,1.18,1.49,1.49,0,0,1-1.19-1.75c.68-3.55,4.14-10.07,12.38-9.32,7.61.68,10,7.35,10.2,10.78a1.5,1.5,0,0,1-1.41,1.58Z" style="fill:#c7c7c7"></path><path d="M384.3,423.08a1.49,1.49,0,0,1-1.49-1.41c0-.3-.56-7.35-7.48-8-7.55-.69-9.1,6.59-9.16,6.9a1.51,1.51,0,0,1-1.76,1.18,1.49,1.49,0,0,1-1.19-1.75c.68-3.55,4.14-10.06,12.38-9.32,7.61.68,10,7.34,10.2,10.77a1.5,1.5,0,0,1-1.41,1.59Z" style="fill:#c7c7c7"></path><rect x="399.47" y="310.43" width="106.34" height="106.34" transform="translate(905.27 727.2) rotate(180)" style="fill:#ebebeb"></rect><rect x="405.72" y="316.68" width="93.83" height="93.83" transform="translate(905.27 727.2) rotate(180)" style="fill:#455a64"></rect><path d="M420.84,339.07a8.85,8.85,0,1,0,7-6.95A8.86,8.86,0,0,0,420.84,339.07Z" style="fill:#37474f"></path><polygon points="431.74 386.16 499.55 386.16 465.64 348.14 431.74 386.16" style="fill:#37474f"></polygon><polygon points="405.72 386.16 461.71 386.16 433.71 361.4 405.72 386.16" style="fill:#263238"></polygon><rect x="405.72" y="386.16" width="93.83" height="24.35" style="fill:#263238"></rect><polygon points="418.3 310.08 399.47 328.91 399.47 310.08 418.3 310.08" style="fill:#fff"></polygon><polygon points="487.16 416.77 505.99 397.94 505.99 416.77 487.16 416.77" style="fill:#fff"></polygon><rect x="521.1" y="271.35" width="106.34" height="106.34" transform="translate(1148.53 649.04) rotate(180)" style="fill:#ebebeb"></rect><rect x="527.35" y="277.61" width="93.83" height="93.83" transform="translate(1148.53 649.04) rotate(180)" style="fill:#dbdbdb"></rect><path d="M542.47,300a8.85,8.85,0,1,0,6.95-6.95A8.86,8.86,0,0,0,542.47,300Z" style="fill:#c7c7c7"></path><polygon points="553.37 347.08 621.18 347.08 587.27 309.06 553.37 347.08" style="fill:#c7c7c7"></polygon><polygon points="527.35 347.08 583.34 347.08 555.35 322.32 527.35 347.08" style="fill:#a6a6a6"></polygon><rect x="527.35" y="347.08" width="93.83" height="24.35" style="fill:#a6a6a6"></rect><polygon points="539.93 271.35 521.1 290.18 521.1 271.35 539.93 271.35" style="fill:#fff"></polygon><polygon points="608.6 378.09 627.44 359.26 627.44 378.09 608.6 378.09" style="fill:#fff"></polygon></g><g id="freepik--character-4--inject-10"><polygon points="499.55 97.52 511.06 255.37 626.59 255.37 625 97.52 499.55 97.52" style="fill:#ebebeb"></polygon><polygon points="506.98 104.98 496.57 178.3 511.82 247.91 619.13 247.91 619.13 104.98 506.98 104.98" style="fill:#c7c7c7"></polygon><polygon points="626.59 116.35 607.76 97.52 626.59 97.52 626.59 116.35" style="fill:#fff"></polygon><path d="M610.6,250.18c1.13,6.34,6.7,11.54,6.7,11.54s7.5-1.38,11.86-6.12c3.64-3.95,3.65-9.37.36-11.52-4.72-3.08-8.69,5.55-8.69,5.55s1.31-9.4-4.33-9.35C612.57,240.31,609.66,244.89,610.6,250.18Z" style="fill:#263238"></path><path d="M554.39,206.2c-.12,3.53-.3,7.64-.59,12.11,0,.37,0,.74-.07,1.12l-.09,1.4c-.21,3-.47,6.12-.77,9.32-.42,4.39-.93,8.9-1.56,13.38-.16,1.13-.32,2.26-.5,3.38H515.49c.34-.72.71-1.48,1.08-2.29,1.65-3.49,3.58-7.78,5.69-12.44l.23-.53c1.43-3.19,2.93-6.53,4.48-9.91,0-.09.07-.17.11-.26,1.55-3.39,3.13-6.81,4.7-10.12l.27-.58.48-1c1.29-2.71,2.58-5.32,3.83-7.76q.67-1.34,1.35-2.58l.6-1.13.41-.76s0,0,0,0a18.26,18.26,0,0,1,3.52-4.68,11.51,11.51,0,0,1,1.41-1.12,7.8,7.8,0,0,1,5.2-1.53c2.86.3,5.12,2.57,5.56,6.08a8.32,8.32,0,0,1,.09,1.24C554.53,199.65,554.5,202.63,554.39,206.2Z" style="fill:#ffc4c0"></path><path d="M555.32,205.67c0,3.4-.14,7.08-.4,10.93,0,.47-.07.94-.1,1.41s-.06.84-.1,1.27c-.33,4.18-.78,8.53-1.34,12.91-.48,3.77-1,7.56-1.65,11.28-.18,1.15-.38,2.3-.59,3.44H513.4l1.21-2.37c.34-.65.68-1.34,1-2,1.67-3.28,3.59-7.14,5.6-11.2l.32-.64,4.66-9.47.17-.35,4.83-9.87c.11-.23.22-.45.32-.67l2.82-5.76,1.46-3c.88-1.81,1.5-3.08,1.77-3.6.07-.14.16-.29.26-.46s.32-.53.53-.83.23-.34.37-.52a28.94,28.94,0,0,1,3.47-3.93c.39-.38.8-.74,1.21-1.08q.21-.18.42-.33c1.82-1.43,3.79-2.43,5.58-2.33a2.66,2.66,0,0,1,.28,0l.25,0a1.63,1.63,0,0,1,.3.07l.26.08h0l.06,0a3.82,3.82,0,0,1,.46.21,4,4,0,0,1,.75.52l.24.22a2.66,2.66,0,0,1,.23.24,3.23,3.23,0,0,1,.23.27l.19.25.24.36a9,9,0,0,1,.77,1.55,15.37,15.37,0,0,1,.78,2.61c.08.34.15.69.22,1.06,0,0,0,0,0,.07a41.4,41.4,0,0,1,.54,5.64C555.3,203,555.33,204.3,555.32,205.67Z" style="fill:#263238"></path><path d="M555.32,205.67c0,3.4-.14,7.08-.4,10.93,0,.47-.07.94-.1,1.41s-.06.84-.1,1.27c-.33,4.18-.78,8.53-1.34,12.91-.48,3.77-1,7.56-1.65,11.28-.18,1.15-.38,2.3-.59,3.44H530l12.15-36.6.44-1.34.22-.66,0-.08,1.73-5.22,1.53-4.61,2.73-8.21.25-.77.32-.95a2.66,2.66,0,0,1,.28,0l.25,0a1.63,1.63,0,0,1,.3.07l.26.08h0l.06,0a3.82,3.82,0,0,1,.46.21,4,4,0,0,1,.75.52l.24.22a2.66,2.66,0,0,1,.23.24,3.23,3.23,0,0,1,.23.27l.19.25.24.36a9,9,0,0,1,.77,1.55,15.37,15.37,0,0,1,.78,2.61c.08.34.15.7.21,1.07,0,0,0,0,0,.06a41.4,41.4,0,0,1,.54,5.64C555.3,203,555.33,204.3,555.32,205.67Z" style="opacity:0.1"></path><path d="M605.38,246.91h-49l-.15.09-.08-.09H526.33c1.56-14.29,3.49-27.42,5.68-35.37l.18-.62.09-.31c.08-.28.16-.55.25-.82.57-1.88,1.19-3.64,1.84-5.26.43-1.08.87-2.11,1.34-3.08a40.2,40.2,0,0,1,2.16-4c.18-.29.35-.58.53-.85l.36-.54a29.53,29.53,0,0,1,3.45-4.28c.3-.3.59-.59.89-.87l.19-.16a22.36,22.36,0,0,1,3.28-2.47c.8-.5,3.29-1,6.47-1.35a64.17,64.17,0,0,1,11.31-.19,30.34,30.34,0,0,1,4.51.69,10.43,10.43,0,0,1,3.75,1.57l.95.75a40.64,40.64,0,0,1,5.64,6A116.58,116.58,0,0,1,590.07,213a0,0,0,0,0,0,0A346,346,0,0,1,605.38,246.91Z" style="fill:#263238"></path><path d="M549.69,207.39c6.54.61,16.06-10.59,19.26-19,.21-.58-1.41-6.13-3.05-13-1-4.16-2-8.81-2.58-13.12-.12-.88-26.1,10.35-26.1,10.35s3.92,8.66,4.92,16.17a9.16,9.16,0,0,1,.06,1.8,3,3,0,0,0,0,.3C542.12,194.32,543.36,206.79,549.69,207.39Z" style="fill:#ffc4c0"></path><path d="M561.67,162.62c-.23,7.46-2.3,25.69-16.67,28a17.73,17.73,0,0,1-2.79.24,1.6,1.6,0,0,1,0-.3,10.83,10.83,0,0,0-.05-1.79c-1-7.53-4.93-16.19-4.93-16.19S556,164.51,561.67,162.62Z" style="fill:#263238"></path><path d="M519.61,126.43s-7,6.38-5.53,15.3,6.55,17,7.43,17.2S519.61,126.43,519.61,126.43Z" style="fill:#263238"></path><path d="M559.34,125.74c5.27,8.72,7.17,37.27,2,45.05-7.52,11.29-23.25,16.16-33.71,6.34-10.13-9.52-12-46.77-5.84-54.2C530.78,112,551.55,112.86,559.34,125.74Z" style="fill:#ffc4c0"></path><path d="M537,150.3c0-.08.16.08.16.16.08,1.92.49,4.12,2.28,4.63.05,0,.05.12,0,.11C537.25,155.05,536.73,152.14,537,150.3Z" style="fill:#263238"></path><path d="M538.54,148.17c3.07-.46,3.76,5.73.91,6.15S536,148.55,538.54,148.17Z" style="fill:#263238"></path><path d="M526,151.09c0-.07-.14.11-.13.19.27,1.91.27,4.14-1.4,5,0,0,0,.12,0,.1C526.61,155.82,526.59,152.86,526,151.09Z" style="fill:#263238"></path><path d="M524.1,149.28c-3.11.11-2.67,6.31.21,6.21S526.7,149.19,524.1,149.28Z" style="fill:#263238"></path><path d="M541.42,144a25.52,25.52,0,0,0-2.45-.72,4.09,4.09,0,0,0-2.64-.26,1.31,1.31,0,0,0-.76,1.41,3.26,3.26,0,0,0,2.47,2.2,4.77,4.77,0,0,0,3.45-.06A1.41,1.41,0,0,0,541.42,144Z" style="fill:#263238"></path><path d="M520.18,146.06a20.17,20.17,0,0,1,2.12-1.43,4.08,4.08,0,0,1,2.43-1,1.33,1.33,0,0,1,1.16,1.12,3.28,3.28,0,0,1-1.69,2.84,4.77,4.77,0,0,1-3.31,1A1.4,1.4,0,0,1,520.18,146.06Z" style="fill:#263238"></path><path d="M541.34,167c-.41.5-.8,1.16-1.49,1.3a5.07,5.07,0,0,1-2.11-.25c-.06,0-.12.05-.07.1a2.57,2.57,0,0,0,2.54.77,2,2,0,0,0,1.32-1.86C541.55,167,541.4,166.94,541.34,167Z" style="fill:#263238"></path><path d="M538.69,161.51a6.56,6.56,0,0,1-4,3.38,8.35,8.35,0,0,1-2.34.37,3.38,3.38,0,0,1-.45,0l-.43,0a.48.48,0,0,1-.43-.39h0a1.34,1.34,0,0,1,0-.2h0v-.17c-.21-1.47-.31-3.73-.31-3.73-.51.33-3.12,1.87-3.16,1.09-.33-6.42-.69-13.56.34-20a.18.18,0,0,1,.35,0c.56,6.16,0,12.38.49,18.57a11.55,11.55,0,0,1,3-1.27c.22,0,.13,4.37.27,5a.17.17,0,0,0,0,.07c2.51,0,4.3-.92,6.52-2.85C538.62,161.23,538.79,161.34,538.69,161.51Z" style="fill:#263238"></path><path d="M563.41,152.53c-3.24,1.24-7.71-8.43-9-12.17-1.18-3.3-3-13.9-3.21-14.61s-13.75,10.43-22.24,8.56-14.56-9-14.91-12.42,9.37-13,18.28-14.1,21.8,9.47,21.8,9.47-4.45-4.63-4.34-5,6,1.5,7.39,5.54c0,0-1.5-5.09-1.07-5.21s5.23,4,4.44,7.41c0,0,5.5,4.14,6.32,9S567.2,151.08,563.41,152.53Z" style="fill:#263238"></path><path d="M522.88,133c2.61,1,5.23,2.1,8.06,2.28a18.8,18.8,0,0,0,8.87-2.06,28.36,28.36,0,0,0,7.55-5.19c2-1.86,3.67-4,5.79-5.73.53-.42,1.22.34.92.87a30,30,0,0,1-14.34,12.15c-5.92,2.33-11.71,1.37-16.88-2.25C522.82,133,522.84,133,522.88,133Z" style="fill:#263238"></path><path d="M556.65,151.1s4.15-10.3,8.69-9,2.85,15.21-1.47,18.07a4.94,4.94,0,0,1-7-1.1Z" style="fill:#ffc4c0"></path><path d="M564.76,146.06a.07.07,0,0,1,0,.12c-3,2.11-4,5.59-4.52,9,.7-1.45,1.89-2.43,3.8-1.64.1,0,0,.2-.05.2a3,3,0,0,0-3,1.78,14.86,14.86,0,0,0-.95,3c-.09.33-.66.3-.63-.07a.19.19,0,0,0,0-.08C558.4,154.21,560.32,147.53,564.76,146.06Z" style="fill:#263238"></path><path d="M541.76,186.59l6,16.13,20.37-19.67,5.45,6.63s-20.25,31.57-20.33,30.12L547,205.87l-9.46,6.69,1.12-21.38Z" style="fill:#ebebeb"></path><path d="M538.47,191.4c0-.14.25-.2.27,0,.26,4-.5,16.33-.58,20,0,0,0,0,0,0,.41-.41,8.74-5.56,8.82-5.43,1.37,2.22,5.93,12.37,6.24,13.29,3.2-5,15.45-23.24,19.21-28,.11-.13.32,0,.23.14-2.85,5.32-19.07,29.85-19.3,29.78a152.93,152.93,0,0,1-6.5-14.73c-1.47,1.71-9.91,7.89-9.92,7.3C536.89,209.71,537.92,195.33,538.47,191.4Z" style="fill:#263238"></path><path d="M556,246.78l.11.13H544c2.94-1.83,5.54-3.09,7.32-3.38l.42-.06a2,2,0,0,1,1.58.41C554.22,244.77,555.12,245.75,556,246.78Z" style="fill:#ffc4c0"></path><path d="M598.56,246.91H566.21c.32-10.72.57-26.39,1.68-37,2.45-23.31,13.8-14.78,20,.65A215,215,0,0,1,598.56,246.91Z" style="fill:#ffc4c0"></path><path d="M556.77,246.91h-.43l-.15.09-.08-.09h-39.5c0-.75,0-1.52,0-2.29v-1.31l-.92-.82c-.55-.51-1.33-1.22-2.23-2.09a75.15,75.15,0,0,1-8.14-9.14l-.25-.36c-.5-.7-.95-1.39-1.36-2.08a14.75,14.75,0,0,1-1.73-4,4.74,4.74,0,0,1,.19-3.31c1.16-2.31,3.16-2.23,5.15-1.29l0,0,.13.05c-.15-.15-.3-.29-.44-.44a23.81,23.81,0,0,1-2.79-3.3c-.2-.29-.38-.59-.55-.88-1-1.74-1.48-3.5-.87-5.08,1.31-3.41,4.16-3.11,6.68-2-2.81-2.31-5.57-5.58-4.17-8.88,0-.1.08-.19.13-.29a4.58,4.58,0,0,1,1.49-1.79h0l0,0a3.46,3.46,0,0,1,1-.47c2.33-.73,5.29.63,7.23,1.78.48.28.89.55,1.21.77-.28-.21-.61-.47-1-.78a10.74,10.74,0,0,1-3.37-4.7,4.19,4.19,0,0,1,1.14-4.26c3.33-3.5,14.25,4.25,22.5,11.45l.12.1.53.48,1.09,1,.58.53.44.4c1.71,1.58,3.23,3.06,4.41,4.3l0,0,.28.3.53.57c.44.48.81.9,1.1,1.26,3,3.67,6.35,13.18,7.81,18.85.08.3.15.59.23.9q.25,1,.51,2c1.12,4.55,2.28,9.71,3.23,14,0,.13,0,.25.08.37l0,.12A1.84,1.84,0,0,0,556.77,246.91Z" style="fill:#ffc4c0"></path><path d="M511.29,209.73c.91.52,1.81,1.07,2.71,1.6a49.74,49.74,0,0,1,5.17,3.3c1.59,1.19,3.13,2.46,4.63,3.77s3,2.94,4.65,4.29a.11.11,0,1,1-.15.17,55.5,55.5,0,0,0-5-3.76c-1.65-1.19-3.32-2.37-5-3.54s-3.17-2.39-4.76-3.59c-.8-.59-1.62-1.15-2.44-1.71a16.35,16.35,0,0,1-2.31-1.64.09.09,0,0,1,.09-.14A12.29,12.29,0,0,1,511.29,209.73Z" style="fill:#263238"></path><path d="M515.38,198.93c1.67.6,8.13,4.75,9.72,5.91a57.24,57.24,0,0,1,8.51,7.57c.09.1,0,.26-.15.18-3.09-2.23-6.15-4.51-9.21-6.78-1.49-1.11-8.44-5.95-9.1-6.55C515,199.12,515.19,198.87,515.38,198.93Z" style="fill:#263238"></path><path d="M507.19,219.76a82.21,82.21,0,0,1,9,5.72,73.91,73.91,0,0,1,7.66,7.82c.08.11-.06.26-.16.17-2.74-2.4-5.43-4.83-8.28-7.1-1.39-1.11-7.19-5.19-8.43-6.36C506.91,219.9,507.05,219.71,507.19,219.76Z" style="fill:#263238"></path><path d="M557.33,245.94l.72,1h-1.71l-.15.09.1-.09.4-.37Z" style="fill:#263238"></path><path d="M598.83,246.91H564.22c.35-6.45,1.06-17.29,2.45-33.92,1.52-18.1,6.85-21.64,12.53-17.31C583,198.58,587,205,590.07,213a0,0,0,0,0,0,0c.13.36.27.71.4,1.07C593.16,221.3,596.37,233.43,598.83,246.91Z" style="fill:#263238"></path><path d="M558.68,246.91H558c-.3-.4-.49-.65-.52-.67a3,3,0,0,0-.76.42l-.38.25-.15.09-.08-.09h-.18a.14.14,0,0,1,0-.06l0-.07a7,7,0,0,1,.61-.61,3.86,3.86,0,0,1,.91-.67A9.75,9.75,0,0,1,558.68,246.91Z" style="fill:#263238"></path><path d="M565.18,219.4c-.1,9.13-.74,18.26-1,27.39v.12h-.67c0-2,.05-4,.09-6,.08-3.65.18-7.32.42-11-.3-2-.5-4-.68-5.94,0-.08.11-.1.12,0,.25,1.4.49,2.81.69,4.22,0-.34,0-.68.07-1,.23-2.6.44-5.21.79-7.8C565,219.28,565.18,219.3,565.18,219.4Z" style="fill:#263238"></path></g><g id="freepik--character-3--inject-10"><polygon points="505.81 97.52 399.47 97.52 399.47 255.37 524.82 255.37 505.81 97.52" style="fill:#ebebeb"></polygon><polygon points="506.98 104.98 406.92 104.98 406.92 247.91 524.33 247.91 506.98 104.98" style="fill:#c7c7c7"></polygon><polygon points="399.47 236.53 418.3 255.37 399.47 255.37 399.47 236.53" style="fill:#fff"></polygon><path d="M392.36,124.51c3.92,2.66,9.52,2.4,9.52,2.4s3.13-4.66,2.87-9.4c-.21-4-3.06-6.74-5.88-6.1-4.05.9-1.54,7.42-1.54,7.42s-4.28-5.52-7.15-2.52C388.17,118.4,389.09,122.28,392.36,124.51Z" style="fill:#263238"></path><path d="M407.71,96.54a11.76,11.76,0,0,0,5,4.14,11.76,11.76,0,0,0,4.39-4.79c1-2.42.09-4.9-1.77-5.32-2.68-.62-3,4-3,4s-1-4.51-3.55-3.54C407,91.7,406.39,94.28,407.71,96.54Z" style="fill:#263238"></path><path d="M496.88,183.87A8.2,8.2,0,0,0,502.22,170c3.31-.54,6.25-2.64,6.73-6.28a7.23,7.23,0,0,0-5.51-7.84s0,0,0,.05c3.09,1.26,5.43,4.23,4.93,7.69-.43,3-2.47,4.63-5,5.44a9.07,9.07,0,0,0,3.68-6.22,7,7,0,0,0-3.7-6.83c1.49-2.81,2.1-6.31.67-9.26a7,7,0,0,0-6.55-4,7.84,7.84,0,0,0-10.84-9.51,6.58,6.58,0,0,0-7.88-7.8,4.46,4.46,0,0,0-2.5-4.09,7.41,7.41,0,0,0-5.7,0,5.29,5.29,0,0,0-4.35-2.62,4.82,4.82,0,0,0-4.78,4c-3-1-6.42-1.62-9.41-.29a6.9,6.9,0,0,0-4.32,6.26,9.53,9.53,0,0,0-11.23,8.77,6.72,6.72,0,0,0-5.36,4,9.74,9.74,0,0,0-1,4.68,5,5,0,0,0-4,4.27,6.66,6.66,0,0,0,1.91,5.34,3.68,3.68,0,0,1-.11,1.69,8.69,8.69,0,0,0,1.65,8.06A5.94,5.94,0,0,0,432,174a6.67,6.67,0,0,0,4.56,8.19,9.74,9.74,0,0,0,1.89,7.88c1.35,1.7,3.59,3,5.73,2.35-.17,1.7,1.48,3.05,3.12,3.31a8.43,8.43,0,0,0,1.88,0,7.53,7.53,0,0,1,2.41-.1c.75.22,1.23,1,1.79,1.49a8.71,8.71,0,0,0,1.32.93,8.86,8.86,0,0,0,10.88-2.05c2.18,1.89,5.31,1.49,7.79.31a15.24,15.24,0,0,0,2.27-1.4,3.87,3.87,0,0,1,2.16-.9c.52,0,1.05.08,1.57.06,1.79,0,3.08-1.18,4.22-2.43C489.57,196.53,497.17,190.94,496.88,183.87Zm-70.18-32.5a5.3,5.3,0,0,1,3.45-5.06,2.57,2.57,0,0,0,0,.28s-.58.44-.84.68a6.79,6.79,0,0,0-1.17,1.55,7,7,0,0,0-.86,3.92,7.15,7.15,0,0,0,.41,1.76l.06.21A6.49,6.49,0,0,1,426.7,151.37Zm40.41-31.18a5.11,5.11,0,0,0-5.23,2.6l-.16-.05c.73-2,2-3.73,4.49-3.65a4.42,4.42,0,0,1,3.74,2.38h0A5.65,5.65,0,0,0,467.11,120.19Zm16.67,71.25.05-.05a9.19,9.19,0,0,0,12-4.5C493.9,191.82,489.38,195,483.78,191.44Z" style="fill:#263238"></path><path d="M507.79,246.91H427.28c4.44-14.09,10.56-28.87,18.76-39.7h0c.77-1,1.56-2,2.38-2.95a48.71,48.71,0,0,1,5.74-5.75,14.14,14.14,0,0,1,2.38-1.6c.41-.21.82-.4,1.23-.58a18,18,0,0,1,3.67-1.13,22.12,22.12,0,0,1,18.41,4.68,12.1,12.1,0,0,1,1.11,1.29c1.45,1.82,4,5.34,7,9.75l.39.57.8,1.17h0C496.2,223.09,505,237.55,507.79,246.91Z" style="fill:#ebebeb"></path><path d="M469.31,246.91H425.15c6.89-20.85,17.21-42.88,31.4-50,.41-.21.82-.4,1.23-.58,0,0,2.22,8.45,4.81,19.27,1,4.33,2.13,9,3.18,13.73C467.14,235.5,468.41,241.66,469.31,246.91Z" style="fill:#263238"></path><path d="M510.19,246.91H493.71a.25.25,0,0,0,0-.08c-.94-6.35-4.07-17.15-7.11-26.78-2.12-6.7-4.19-12.84-5.46-16.54-.79-2.28-1.27-3.64-1.27-3.64.34.19.68.4,1,.64a40,40,0,0,1,8.4,8.16c.45.55.9,1.13,1.35,1.71h0c.14.17.27.35.41.53a126,126,0,0,1,7.6,11.51l0,.06,1.05,1.82.33.58c2.39,4.22,4.52,8.39,6.21,12.05l.15.33q.45,1,.84,1.86l0,.06a61,61,0,0,1,2.81,7.39C510.14,246.69,510.17,246.8,510.19,246.91Z" style="fill:#263238"></path><path d="M461.12,198c.33,1.8,6.31,13.24,16.18,12.26,5.73-.57,3.33-11.2,3.33-11.2L485,183.16l-19.52-13.77S461,197.2,461.12,198Z" style="fill:#ad6359"></path><path d="M463.86,179.79a31.36,31.36,0,0,0,17,18.36l4.13-15L465.5,169.39S464.75,174.09,463.86,179.79Z" style="fill:#263238"></path><path d="M504.61,155.37c6,26.3-9.09,32.85-14.77,34.14-5.15,1.16-22.83,4.48-31.49-21.06s1.66-36.64,13.3-39.93S498.63,129.07,504.61,155.37Z" style="fill:#ad6359"></path><path d="M500.78,152.34a16.33,16.33,0,0,0-1.86-.27,3,3,0,0,0-1.94.08,1,1,0,0,0-.4,1.11,2.4,2.4,0,0,0,2,1.34,3.52,3.52,0,0,0,2.5-.41A1,1,0,0,0,500.78,152.34Z" style="fill:#263238"></path><path d="M481,156.59c.49-.42,1-.73,1.52-1.1a3.06,3.06,0,0,1,1.76-.82,1,1,0,0,1,.87.79,2.38,2.38,0,0,1-1.17,2.12,3.44,3.44,0,0,1-2.4.8A1,1,0,0,1,481,156.59Z" style="fill:#263238"></path><path d="M487,161.47c0-.07-.12.12-.09.19.53,1.77.85,3.88-.6,4.91,0,0,0,.12,0,.09C488.21,165.85,487.76,163.05,487,161.47Z" style="fill:#263238"></path><path d="M484.88,160c-2.93.56-1.6,6.37,1.11,5.85S487.33,159.57,484.88,160Z" style="fill:#263238"></path><path d="M483.81,160.6c-.44.45-.8,1.14-1.4,1.34s-1.36-.26-2-.74c-.06,0-.1,0-.08.09.23,1.12.92,2.17,2.15,2.06s1.68-1.26,1.71-2.44C484.23,160.69,484,160.42,483.81,160.6Z" style="fill:#263238"></path><path d="M497.15,159.19c0-.07.16.06.17.13.37,1.81,1.09,3.82,2.86,4,.06,0,.07.1,0,.11C498.14,163.65,497.2,161,497.15,159.19Z" style="fill:#263238"></path><path d="M498.31,156.94c2.84-.9,4.43,4.84,1.8,5.67S495.93,157.7,498.31,156.94Z" style="fill:#263238"></path><path d="M499.61,157c.54.18,1.14.61,1.69.5s.93-.89,1.17-1.59c0-.08.08,0,.11,0,.33,1.09.28,2.34-.71,2.84s-1.88-.29-2.44-1.31C499.32,157.26,499.39,156.91,499.61,157Z" style="fill:#263238"></path><path d="M489.36,176.31c.48.39,1,.93,1.65.92a4.93,4.93,0,0,0,1.93-.66.06.06,0,0,1,.09.08,2.48,2.48,0,0,1-2.23,1.24,2,2,0,0,1-1.61-1.47C489.15,176.31,489.29,176.26,489.36,176.31Z" style="fill:#263238"></path><path d="M495.91,168.5s.82,2.66,1,3.94c0,.12-.28.23-.71.32,0,0,0,0-.05,0a6.19,6.19,0,0,1-6.3-1.32c-.1-.11,0-.27.17-.21a9.31,9.31,0,0,0,5.83.7c0-.37-1.55-4.51-1.35-4.56a11.41,11.41,0,0,1,3,.19c-1.54-5.59-4-10.89-5.41-16.48a.18.18,0,0,1,.32-.14c2.94,5.37,4.85,11.77,6.59,17.51C499.26,169.17,496.46,168.63,495.91,168.5Z" style="fill:#263238"></path><path d="M494.92,172.77a6.37,6.37,0,0,1-2.35,2.18,2.76,2.76,0,0,1-1.71.27c-1.28-.21-1.41-1.35-1.27-2.35a6.8,6.8,0,0,1,.42-1.55A8.15,8.15,0,0,0,494.92,172.77Z" style="fill:#263238"></path><path d="M492.57,175a2.76,2.76,0,0,1-1.71.27c-1.28-.21-1.41-1.35-1.27-2.35A2.93,2.93,0,0,1,492.57,175Z" style="fill:#ff97b8"></path><path d="M453.75,167.25c1.38,4.53,3.91,8.36,7.74,9.79.5.18,1-.12.8-.64-.6-1.67,1.62-4.17,1.09-5.87a21.84,21.84,0,0,1-1.15-4.48c-.24-2.82,1.76-4.14,3.93-5.37,1.88-1.09,3.83-2.31,4.47-4.54s-.33-4.42-1.5-6.36a8.07,8.07,0,0,0,7-5.88,6.7,6.7,0,0,0-.3-4.21,9.89,9.89,0,0,0,5.35,2.21c4,.13,6.82-3.52,6.86-7.27,0-.26-.05-.5-.08-.73,1,1.81,1.77,3.8,3.48,5s4.37,1.14,6.17,2.23c2.66,1.59,2.9,3.45,3.68,3.46.29,0,1.12-8.64-4.71-13.79a16.53,16.53,0,0,0-13.81-4.34,14,14,0,0,0-10.68-.62c-3.83,1.61-6.3,4.65-6.23,5.06-4.7-.2-9.52,4.48-11.76,8.28-5.75,9.77-1.05,19.58-1.05,19.58A20.41,20.41,0,0,0,453.75,167.25Z" style="fill:#263238"></path><path d="M466.52,165.77c0-2.27,1.21-3.69,2.82-5.12a6.64,6.64,0,0,0,2.06-2.58,6,6,0,0,0,0-3.39,14,14,0,0,0-1.57-3.64,9.75,9.75,0,0,0-2.49-3.2.12.12,0,1,1,.14-.19,12.59,12.59,0,0,1,1.15.85l0,0a12.2,12.2,0,0,0,4.54-.47,6,6,0,0,0,2.8-2.06,4,4,0,0,0,.49-3.48A26.86,26.86,0,0,0,475.1,138c-.06-.14.16-.23.23-.09a26,26,0,0,1,2.17,4.77,4.52,4.52,0,0,1-.6,3.89c-1.71,2.52-5.11,2.72-7.88,2.21,2.88,2.53,5.09,6.53,3.56,10.25-.85,2.08-3,3.07-4.19,4.85-1.76,2.56-.81,5.48.93,7.75a.08.08,0,1,1-.12.1A9.37,9.37,0,0,1,466.52,165.77Z" style="fill:#263238"></path><path d="M487.07,132a20.24,20.24,0,0,1,2.25,4.94c.63,1.54,1.48,3,3.15,3.57s3.3.23,4.89.74a6.72,6.72,0,0,1,3.56,2.77c.08.14-.1.28-.2.16a5.93,5.93,0,0,0-4.66-2.28c-1.65-.05-3.43.14-4.92-.71-3.26-1.89-2.61-6.21-4.18-9.12A.07.07,0,0,1,487.07,132Z" style="fill:#263238"></path><path d="M463.41,167.67s-7-7.54-10.48-4.94,2.56,14.09,7.23,15.13a4.56,4.56,0,0,0,5.72-3.26Z" style="fill:#ad6359"></path><path d="M454.75,166a.06.06,0,0,0,0,.12c3.29.84,5.33,3.5,6.89,6.33-1.08-1-2.43-1.48-3.83-.16-.07.07,0,.18.11.15a2.8,2.8,0,0,1,3.19.55,13.67,13.67,0,0,1,1.81,2.27c.18.26.67,0,.52-.26a.43.43,0,0,0,0-.07C462.92,170.93,459.07,165.79,454.75,166Z" style="fill:#263238"></path><path d="M465.77,229.32c2.09,5.79,4.22,12,6.15,17.59h-27c-.53-6.66-.95-13.33-1.31-19.81,0-.48-.05-1-.06-1.43,0-1.09,0-2.16,0-3.19.43-17.23,9-26.27,17.67-5.22.74,1.79,1.51,3.76,2.31,5.86.09.25.19.51.29.77C464.43,225.63,465.09,227.45,465.77,229.32Z" style="fill:#ad6359"></path><path d="M494.08,246.91h-8c.94-1,3.82-.92,7.61-.08Z" style="fill:#ad6359"></path><path d="M534,219.47a5.24,5.24,0,0,1,0,.79c-.22,2.79-1.94,6.38-4,9.76-.14.22-.27.44-.41.65a94.36,94.36,0,0,1-7.13,9.73l-.29.34c.58,1.32,1.08,2.58,1.48,3.8q.42,1.22.72,2.37H483.11c.35-4.85.81-10.38,1.29-14.88a92.54,92.54,0,0,1,2.19-12,35.06,35.06,0,0,1,2.6-7.39h0l.23-.4.19-.32c.28-.44.62-1,1-1.54h0c5.5-7.91,21.9-27,27.13-22.87,3.57,2.81,1,6.91-.9,9.17-.28.32-.54.6-.76.84.27-.24.61-.54,1-.85a15.06,15.06,0,0,1,4-2.41c2-.77,4.21-.74,5.77,1.51a5.06,5.06,0,0,1,.5,4.73,6.85,6.85,0,0,1-.34.85,16.26,16.26,0,0,1-2.82,4.06c2.33-1.49,5.1-2.19,6.88,1,1.37,2.43-.09,5.8-2.14,8.81-.23.32-.45.64-.69.95v0c-.13.17-.25.34-.38.5l.17-.11.4-.25a5.54,5.54,0,0,1,1.23-.55,3,3,0,0,1,3.63,1.34A4.26,4.26,0,0,1,534,219.47Z" style="fill:#ad6359"></path><path d="M522.51,206.75l-2.45,2a52.11,52.11,0,0,0-4.64,4q-2.1,2.13-4,4.4c-1.37,1.61-2.59,3.35-4,4.92a.12.12,0,1,0,.18.15,54,54,0,0,1,4.38-4.44c1.46-1.42,2.94-2.82,4.42-4.22s2.8-2.83,4.2-4.24c.7-.7,1.44-1.37,2.17-2a17.27,17.27,0,0,0,2-2c.06-.08,0-.17-.12-.13A12.8,12.8,0,0,0,522.51,206.75Z" style="fill:#263238"></path><path d="M516.91,196.66c-1.57.83-7.36,5.87-8.76,7.24a56.68,56.68,0,0,0-7.34,8.73.12.12,0,0,0,.18.15c2.73-2.65,5.43-5.35,8.13-8,1.32-1.31,7.49-7.1,8.06-7.79C517.32,196.79,517.08,196.57,516.91,196.66Z" style="fill:#263238"></path><path d="M528,216.09a82,82,0,0,0-8.12,7,73,73,0,0,0-6.46,8.84c-.06.12.09.25.18.15,2.37-2.77,4.68-5.57,7.18-8.22,1.21-1.3,6.36-6.17,7.42-7.51C528.31,216.19,528.15,216,528,216.09Z" style="fill:#263238"></path><path d="M514.66,229.94s-6.29-2.42-6-8.92l.54-.56a15.76,15.76,0,0,0,5.86,9Z" style="fill:#263238"></path><path d="M474.57,246.91H442.3c-.52-7.57-.69-14.15-.58-18.87.21-8.92,1.81-16.44,4.32-20.83h0a10.58,10.58,0,0,1,2.38-2.95c3.78-3.09,8.8-.45,14.16,11.34.5,1.11,1,2.3,1.52,3.58q2.14,5.39,3.93,10s0,.05,0,.07q1.4,3.65,2.59,6.84.6,1.6,1.14,3.09Q473.38,243.51,474.57,246.91Z" style="fill:#263238"></path><path d="M475.05,246.91h-.84c-.89-2.55-1.8-5.1-2.71-7.66-.36-1-.72-2-1.07-3-.81-2.31-1.61-4.62-2.36-7,0,0,0,0,0-.07-.22-.66-.43-1.32-.64-2a.08.08,0,0,1,.15-.06c1.09,2.37,2.05,4.81,3,7.23.13.32.25.64.37,1-.22-1.41-.4-2.82-.58-4.23,0-.08.11-.1.12,0,.41,1.94.81,3.91,1.09,5.88C472.83,240.25,474,243.59,475.05,246.91Z" style="fill:#263238"></path></g><g id="freepik--character-2--inject-10"><path d="M246.67,387.18A970.34,970.34,0,0,1,355.6,399.92V242.16a972.67,972.67,0,0,0-108.93-12.74Z" style="fill:#ebebeb"></path><path d="M253.09,381.18q48.15,3.21,96.12,11.25v-145q-47.91-8-96.12-11.24Z" style="fill:#c7c7c7"></path><path d="M355.6,261q-9.39-11.06-18.79-21.93,9.4,1.45,18.79,3.09Z" style="fill:#fff"></path><path d="M246.67,368.35q9.44,10,18.88,20.15-9.44-.75-18.88-1.32Z" style="fill:#fff"></path><path d="M242.11,279c-1.09-8.56,1.37-16.61,4.7-24.38a76.55,76.55,0,0,1,7-13.06c.07-.1.2,0,.14.1a72,72,0,0,0-6.07,11.73,84.66,84.66,0,0,0-4.32,12.11c-2.07,8.21-1,16.49,1.64,24.46,1.49,4.49,3.39,8.83,5.27,13.17.05.11-.12.18-.17.07C246.76,295.44,243.18,287.44,242.11,279Z" style="fill:#263238"></path><path d="M254.91,243.28s-.62,5.09-1,5.22a29.47,29.47,0,0,1-6.12-2.81,48.3,48.3,0,0,1,3-4.28Z" style="fill:#263238"></path><path d="M269,207.07c9.76,4.67,14.18,16.23,8.31,27.62s-19.34,11.13-24.25,8.9c-3.55-1.66-16.35-10.89-9.64-25.84C249.16,205,259.27,202.42,269,207.07Z" style="fill:#263238"></path><path d="M275.45,229.43a12,12,0,0,1-17.88-16,11.73,11.73,0,0,1,16.71-.71A11.86,11.86,0,0,1,275.45,229.43Z" style="fill:#fff;opacity:0.2"></path><path d="M274.08,223.72a7.19,7.19,0,1,1-.71-10A7.1,7.1,0,0,1,274.08,223.72Z" style="fill:#fff;opacity:0.4"></path><path d="M267.46,300.83c-3,9.12-8.1,19.48-6.47,29.65,1.28,8,6.66,14.87,12.72,20.27C287,362.57,308,371.42,322.5,361.35c5.81-4,9.86-15.7,4.08-23-3-3.73-7.1-6-10.87-8.66A21.32,21.32,0,0,1,306.52,316c-2.25-11.29.62-17.8,2.5-28.32a8.22,8.22,0,0,0-1.09-6.34,16.53,16.53,0,0,0-5.32-5.77,15.74,15.74,0,0,0-6.11-3.46c-4.79-1.29-10.41,1.22-14.74,2.52s-6.81,3.49-8.31,7.86C271.36,288.56,269.46,294.71,267.46,300.83Z" style="fill:#263238"></path><path d="M265.09,304.8c3.27-8.15,6.7-16.2,10.08-24.25,0-.05.1,0,.08,0-2.57,6.73-5.06,13.5-7.73,20.21s-5.78,13.14-7.79,20c-4.52,15.39,10,27.13,23.68,31.3a.48.48,0,1,1-.27.93c-11.91-4-24.95-12.76-25.09-26.54C258,318.92,262.42,311.45,265.09,304.8Z" style="fill:#263238"></path><path d="M308.48,286.58c0-.16.29-.06.26.11-1.93,8.54-5,18.23-2.06,27.47a27.22,27.22,0,0,0,7.84,12c2.9,2.57,6.33,4.07,9.56,6.11,12.62,8,7.95,25.32-3.6,28.13-.24.06-.41-.37-.17-.45,8.26-2.47,13.13-11,9.51-20.26-2.9-7.45-12-9.16-17.2-14.58C301.74,313.86,304.84,298.67,308.48,286.58Z" style="fill:#263238"></path><path d="M324.47,388.6q-6.32-.89-12.64-1.7l0,0-.63-.11-5.2-.64c0-.07,0-.14-.07-.21-.9-2.71-2.06-6.1-3.34-9.94-.32-1-.65-1.94-1-2.95-.05-.17-.11-.33-.17-.51l-2.68-8c-1.35-4-2.75-8.27-4.14-12.52h0c-.51-1.52-1-3.05-1.51-4.57l-.06-.19c-1.9-5.83-3.74-11.58-5.33-16.75,0,0,0-.07,0-.11v0c-.23-.71-.44-1.4-.66-2.08a.5.5,0,0,0,0-.13c-.83-2.75-1.59-5.31-2.23-7.59h0c-.05-.2-.1-.38-.16-.57h0c-.17-.61-.33-1.21-.49-1.78-1.64-6.06-1.61-9.3-.65-10.37.61-.68,1.6-.45,2.78.52h0a11.16,11.16,0,0,1,1.26,1.24c.68.78,1.38,1.6,2.07,2.45.34.41.67.82,1,1.25v0a195,195,0,0,1,11.3,16l.16.25c.43.66.86,1.33,1.28,2,4.41,7,8.68,14.32,12.5,21.22l.18.33c.95,1.72,1.87,3.42,2.76,5.07q1.16,2.13,2.23,4.16l1.41,2.7h0c.15.27.29.55.43.82,2,3.91,3.78,7.38,5.15,10.17l.26.53c.53,1.08,1,2.06,1.4,2.9l.09.19,0,0a.08.08,0,0,0,0,0c.48,1,.86,1.86,1.12,2.44C331.69,384.06,328.62,386.5,324.47,388.6Z" style="fill:#f7a9a0"></path><path d="M349.21,392.37v.06q-18.66-3.14-37.38-5.53,8.19-3.63,16.37-7.13l1.27-.54.12.24.09.19,0,0a.08.08,0,0,0,0,0,18.79,18.79,0,0,0,3.42,4.6C334.5,385.6,342.79,388.92,349.21,392.37Z" style="fill:#f7a9a0"></path><path d="M306.26,331.81q-10.45-.9-20.91-1.59a166.58,166.58,0,0,1-3.68-16.28c-1.06-7.8,1.56-9.77,8.76-2.76C295.24,315.84,306.26,331.8,306.26,331.81Z" style="fill:#263238"></path><path d="M284.52,320h0c-.17.09-.34.18-.5.28-.34.22-.67.46-1,.71,0,.07,0,.14.05.22a1.36,1.36,0,0,0,0,.17v0s0,0,0,0h0a1.29,1.29,0,0,0,.16-.09c.36-.17.71-.37,1.05-.57l.33-.22h0c.17-.12.34-.24.5-.37h0a6.46,6.46,0,0,0,1-.94A8.38,8.38,0,0,0,284.52,320Zm11.89-.41a11.86,11.86,0,0,0-1.7-2.06,11,11,0,0,0,1.24,2.35,11.72,11.72,0,0,0,1.7,2.05A10.93,10.93,0,0,0,296.41,319.57Zm-1.05,9.55c-.43-.11-.84-.2-1.28-.28h0a7.09,7.09,0,0,0-1.22-.1h.08a11.69,11.69,0,0,0,4.89,1.33A11.58,11.58,0,0,0,295.36,329.12Z" style="fill:#fff"></path><path d="M299.73,331.27c-4.79-.39-9.59-.73-14.38-1a166.58,166.58,0,0,1-3.68-16.28c-.51-3.8-.16-6.21,1.17-6.88Q291.29,319.09,299.73,331.27Z" style="opacity:0.1"></path><path d="M287.9,330.4c-.23-.06-2.38-.27-2.53-.24-.31-1.23-.6-2.46-.93-3.69q-.24-.92-.51-1.83c-.2-.67-.39-1.44-.56-2,0-.09-.15-.08-.13,0,.16.79.29,1.37.43,2.05s.26,1.22.41,1.82c.31,1.28.59,2.65,1,3.92a20.19,20.19,0,0,0,2.85.06S287.93,330.41,287.9,330.4Z" style="fill:#263238"></path><path d="M304.07,329.64c-3.05-.47-6.09-.88-9.15-1.14-1.52-.13-3-.23-4.56-.31s-3,0-4.56-.08c-.08,0-.07.13,0,.13,1.51,0,3.05.23,4.57.33s3,.22,4.57.34c3,.25,6.08.51,9.12.86C304.17,329.78,304.15,329.65,304.07,329.64Z" style="fill:#263238"></path><path d="M297.73,385.2q-22.31-2.54-44.64-4V363.94q20.62,1.37,41.23,3.63c.39,2,.77,4,1.16,5.95Z" style="fill:#263238"></path><path d="M298.22,343.15l-.14.33a24.09,24.09,0,0,1-3.69,5.9l.17,2.62h0q.33,5.76.68,11.5l.6,10.05q-21.36-2.38-42.75-3.8V325.32a1.75,1.75,0,0,1,.16-.27c.26-.46.53-.9.79-1.33l.29-.46c0-.08.09-.14.13-.21a78.35,78.35,0,0,1,6.73-9.36h0c.59-.7,1.2-1.37,1.8-2,.33-.37.67-.72,1-1.07h0a49.37,49.37,0,0,1,4.37-4l.07-.06c.84-.68,1.69-1.33,2.55-1.92l.56-.38.46-.28a13.42,13.42,0,0,1,7.77-1.31,11.5,11.5,0,0,1,3.9,1.15,9.92,9.92,0,0,1,1.09.63,10.15,10.15,0,0,1,1.65,1.38,13.54,13.54,0,0,1,1.16,1.89l0,0c.29.51.61,1.12,1,1.8s.73,1.4,1.14,2.21c.26.5.52,1,.79,1.59v0c1.94,3.94,4.21,8.82,6,13.27h0c.29.72.57,1.43.82,2.13.05.13.1.26.14.39.12.32.24.64.34,1s.26.72.37,1.07a26,26,0,0,1,1.27,5.18A14.26,14.26,0,0,1,298.22,343.15Z" style="fill:#263238"></path><path d="M288.15,345.18a33.67,33.67,0,0,0-9.31.63c-3,.57-9.77,2.65-11.46,3.18,0,0,0,.07,0,.07a60.66,60.66,0,0,0,6.48-1.4c3-.75,6-1.39,9-1.88a39.67,39.67,0,0,1,5.24-.42A.09.09,0,0,0,288.15,345.18Z" style="fill:#263238"></path><path d="M293.7,347.37a27.74,27.74,0,0,0-9.78-.15,0,0,0,0,0,0,.07c1.62,0,3.24-.06,4.86,0s3.28.13,4.92.2C293.77,347.46,293.76,347.38,293.7,347.37Z" style="fill:#263238"></path><path d="M264.93,313.82a9.46,9.46,0,0,0-.69,2.37,10,10,0,0,0-.11,2.51,8.82,8.82,0,0,0,.68-2.37A9.54,9.54,0,0,0,264.93,313.82Zm-2.33,32.67a9.17,9.17,0,0,0-.69,2.37,9.69,9.69,0,0,0-.11,2.53,9.31,9.31,0,0,0,.69-2.39A10,10,0,0,0,262.6,346.49Zm23.52-12.21a9.32,9.32,0,0,0-.68,2.37,9.42,9.42,0,0,0-.11,2.5,9.67,9.67,0,0,0,.68-2.36A9.92,9.92,0,0,0,286.12,334.28Zm-2.48,35.87a8.91,8.91,0,0,0-.63,2.06h0l.57.06h0A8.8,8.8,0,0,0,283.64,370.15Zm-11-44.88c-.24-.06-.49-.11-.74-.15l-.32-.07h-.08a7,7,0,0,0-.92-.1h-.47a5.52,5.52,0,0,0,.7.33c.19.09.38.15.57.22h0l.06,0h0a2,2,0,0,0,.32.1,6.77,6.77,0,0,0,.77.22,10.13,10.13,0,0,0,2.52.33A10.62,10.62,0,0,0,272.67,325.27Zm14.06,26.19a10.17,10.17,0,0,0-2.52-.38,11.5,11.5,0,0,0,2.43.94,11,11,0,0,0,2.53.37A10.06,10.06,0,0,0,286.73,351.46Zm8.63-22.34c-.43-.11-.84-.2-1.28-.28h0a7.09,7.09,0,0,0-1.22-.1h.08a11.69,11.69,0,0,0,4.89,1.33A11.58,11.58,0,0,0,295.36,329.12Zm-35.29,32.3a10.19,10.19,0,0,0-2.53-.31A11,11,0,0,0,260,362a10.76,10.76,0,0,0,2.54.3A10.84,10.84,0,0,0,260.07,361.42Zm31.13,3.24a9.79,9.79,0,0,0-2.52-.38,11.5,11.5,0,0,0,2.43.94,10.32,10.32,0,0,0,2.52.38A10.8,10.8,0,0,0,291.2,364.66Zm-15.29-58a10.9,10.9,0,0,0-1.71-2,11.47,11.47,0,0,0,1.24,2.32,11.3,11.3,0,0,0,1.72,2A10.79,10.79,0,0,0,275.91,306.69Zm21.42,34.92a12.18,12.18,0,0,0-1.7-2.05,11.18,11.18,0,0,0,1.23,2.35,13.8,13.8,0,0,0,1.22,1.57h0c0-.12.08-.22.13-.34A14.67,14.67,0,0,0,297.33,341.61Zm-39.55-8.37a11.86,11.86,0,0,0-1.71-2,11.2,11.2,0,0,0,1.23,2.29,12.4,12.4,0,0,0,1.72,2A11.31,11.31,0,0,0,257.78,333.24ZM276,358.6a11.67,11.67,0,0,0-1.7-2,11.1,11.1,0,0,0,1.23,2.31,10.7,10.7,0,0,0,1.72,2A10.3,10.3,0,0,0,276,358.6Zm24.21-.88a8.57,8.57,0,0,0-1.86,1.5,9,9,0,0,0,2.2-1,8.3,8.3,0,0,0,1.87-1.48A8.78,8.78,0,0,0,300.21,357.72ZM284.52,320h0c-.17.09-.34.18-.5.28-.34.22-.67.46-1,.71h0a8.44,8.44,0,0,0-.87.82,6.39,6.39,0,0,0,1-.37h0l.16-.08c.36-.17.71-.37,1.05-.57l.33-.22h0c.17-.12.34-.24.5-.37h0a6.46,6.46,0,0,0,1-.94A8.38,8.38,0,0,0,284.52,320ZM267.61,370.6l-.3.21h0l.95.08h0a8.58,8.58,0,0,0,1.55-1.34A9.11,9.11,0,0,0,267.61,370.6Zm5.18-31.5a8.39,8.39,0,0,0-1.88,1.55,9,9,0,0,0,2.21-1,8.57,8.57,0,0,0,1.87-1.55A9.11,9.11,0,0,0,272.79,339.1Z" style="fill:#fff"></path><path d="M277.47,308.8c-.09,1.1,2.68,9.6,7.46,11.36,1.56.58,4.22-7.53,4.22-7.53l.34-.54,4.72-7.53q-4-5.34-8.09-10.65c-.39-.49-.79-1-1.19-1.46,0,0-1.15,2.17-2.55,4.9l-.2.38-.23.44c-.22.41-.44.82-.64,1.24s-.32.62-.47,1-.32.67-.48,1A55.48,55.48,0,0,0,277.47,308.8Z" style="fill:#f7a9a0"></path><path d="M282.38,297.35a21.07,21.07,0,0,0,7.11,14.74l4.72-7.53q-4-5.34-8.09-10.65c-.39-.49-.79-1-1.19-1.46C284.93,292.45,283.78,294.62,282.38,297.35Z" style="fill:#263238"></path><path d="M311.08,298.33c-3.47,15.53-13.45,14.07-16.9,13-3.13-1.05-13.72-4.82-11.91-20.9s10.35-18.67,17.59-16.64S314.55,282.79,311.08,298.33Z" style="fill:#f7a9a0"></path><path d="M294.24,296.63a6.83,6.83,0,0,1,2.38,1.56,5.23,5.23,0,0,1,1.4,2.55,4.47,4.47,0,0,1-.29,2.74,3.63,3.63,0,0,1-1.82,1.82,5.42,5.42,0,0,0,1.36-2.05,4.79,4.79,0,0,0,.23-2.47,5.09,5.09,0,0,0-1.14-2.36A8.51,8.51,0,0,0,294.24,296.63Z" style="fill:#263238"></path><path d="M308.66,295c-.36-.19-.66-.43-1-.65a2.26,2.26,0,0,1-.91-.85.54.54,0,0,1,.2-.66,1.5,1.5,0,0,1,1.46.25,2.61,2.61,0,0,1,1.07,1.23A.56.56,0,0,1,308.66,295Z" style="fill:#263238"></path><path d="M298.12,290.9a11.07,11.07,0,0,0,1.12.22,1.8,1.8,0,0,0,1.17,0,.54.54,0,0,0,.2-.66,1.67,1.67,0,0,0-1.27-.87,2,2,0,0,0-1.49.18C297.39,290,297.61,290.76,298.12,290.9Z" style="fill:#263238"></path><path d="M299.57,296s-.1,0-.11.06c-.25,1-.72,2.2-1.79,2.18,0,0-.05.05,0,.06C298.89,298.63,299.51,297.1,299.57,296Z" style="fill:#263238"></path><path d="M298.91,294.58c-1.7-.78-2.76,2.53-1.19,3.26S300.33,295.24,298.91,294.58Z" style="fill:#263238"></path><path d="M298.18,294.47c-.36.06-.76.27-1.14.15s-.63-.62-.8-1.06c0-.05-.06,0-.07,0a1.41,1.41,0,0,0,.51,1.78,1.22,1.22,0,0,0,1.63-.58C298.37,294.67,298.32,294.45,298.18,294.47Z" style="fill:#263238"></path><path d="M309.05,299a3.57,3.57,0,0,0-.83-.51,3.88,3.88,0,0,0-.94-.27,2.51,2.51,0,0,0-1,.07,1.86,1.86,0,0,0-.83.5l-.42.42.63.15a7.25,7.25,0,0,1,1.31.45,3.44,3.44,0,0,1,1.17.87,2.39,2.39,0,0,0-1-1.28,4.13,4.13,0,0,0-1.45-.69l.21.57a2.06,2.06,0,0,1,1.36-.5A7.26,7.26,0,0,1,309.05,299Z" style="fill:#263238"></path><path d="M306.75,300.72a7,7,0,0,1-1.21-1c-.09-.09-.4-.49-.36-.56a2.47,2.47,0,0,1,.39-.56,1.46,1.46,0,0,0-.52.5,1,1,0,0,0,.34.76A3.46,3.46,0,0,0,306.75,300.72Z" style="fill:#263238"></path><path d="M298.94,305.76a2,2,0,0,0,.65,1,3,3,0,0,0,1.21.3s.06.06,0,.08a1.53,1.53,0,0,1-1.54-.12,1.3,1.3,0,0,1-.47-1.28C298.83,305.69,298.92,305.71,298.94,305.76Z" style="fill:#263238"></path><path d="M303.83,303c-.07.43-1.72-.95-2-1.21-.06-.28-.12-.57-.17-.85a8.18,8.18,0,0,1,1.58,1.11c.69-3.35.81-6.85,1.55-10.17,0-.11.2-.07.21.05A54.64,54.64,0,0,1,303.83,303Z" style="fill:#263238"></path><path d="M301.69,300.93a4.72,4.72,0,0,0,1.41,2.33c.34.23,1.24.7.92,1.45s-1.61.35-2.18.22l.3-.29a1.65,1.65,0,0,1-.05.93.64.64,0,0,1-1,.22c-.56-.48-.6-1-.9-1.5a2.88,2.88,0,0,1,.58.63,1.76,1.76,0,0,0,.51.51c.16.06.28,0,.33-.1a1.35,1.35,0,0,0,0-.63l-.07-.36a4.9,4.9,0,0,0,1.25.31c.44,0,.87,0,.83-.37s-.83-.49-1.29-1.09A3.21,3.21,0,0,1,301.69,300.93Z" style="fill:#263238"></path><path d="M282.36,290.52c1.84.59,8-2.37,10.65-10.71,0,0-2.95,7.28-3.87,8.15s3.44-1.66,5.7-8.34a35,35,0,0,0,6.1,6.51c3,2.25,5.07,3.06,5.37,2.93s-4.11-3.63-5-5.62c0,0,7.6,7.55,11.57,9.57.45.23,3.83-8.81-1.24-15.39s-16.3-6.37-19.73-4.92c0,0-3.26-.82-8,2.35S280.39,289.88,282.36,290.52Z" style="fill:#263238"></path><path d="M284.55,292.4s-1.91-6.13-4.5-5.84-2.22,8.18.08,10.17,4,.07,4,.07C284.26,295.33,284.4,293.86,284.55,292.4Z" style="fill:#f7a9a0"></path><path d="M280.21,288.83s-.06,0,0,.06a7.69,7.69,0,0,1,2.16,5.45,1.68,1.68,0,0,0-2.06-1.27c-.06,0,0,.1,0,.11a1.94,1.94,0,0,1,1.61,1.28,8.24,8.24,0,0,1,.41,1.75c0,.2.36.23.35,0v0C283.44,294,282.64,290.06,280.21,288.83Z" style="fill:#263238"></path><path d="M302.29,271.51q-10.28,2.34-20.57,4.9l.48-31.78Q292.25,258,302.29,271.51Z" style="fill:#37474f"></path><path d="M303.28,272.25q-11,2.5-22.06,5.25l-.75-1.57q11.2-2.93,22.4-5.58C303,271,303.14,271.62,303.28,272.25Z" style="fill:#263238"></path><path d="M303.68,274.15q-10.76,2.44-21.54,5.12l-.77-1.49q11-2.73,22-5.22C303.45,273.09,303.57,273.62,303.68,274.15Z" style="fill:#263238"></path><path d="M282.16,262.63a2.29,2.29,0,0,0,1.73,2.94,1.83,1.83,0,0,0,2.3-1.79,2.38,2.38,0,0,0-1.81-2.36A1.9,1.9,0,0,0,282.16,262.63Z" style="fill:#fff"></path><path d="M283.38,254.24a2.29,2.29,0,0,0,1.73,2.94,1.82,1.82,0,0,0,2.29-1.79,2.38,2.38,0,0,0-1.81-2.36A1.89,1.89,0,0,0,283.38,254.24Z" style="fill:#fff"></path><path d="M286,249.67a2.31,2.31,0,0,1-.83,0,2.28,2.28,0,0,1-1.73-2.94,1.51,1.51,0,0,1,.13-.29Z" style="fill:#fff"></path><path d="M284.86,272.51a1.83,1.83,0,0,1-2.3,1.79,1.85,1.85,0,0,1-.8-.32c0-1.23,0-2.46.05-3.7a2.22,2.22,0,0,1,1.24-.13A2.39,2.39,0,0,1,284.86,272.51Z" style="fill:#fff"></path><path d="M292.28,270.14a1.92,1.92,0,0,0,1.14-2.94,2.16,2.16,0,0,0-3-.9,2,2,0,0,0-.62,2.7A2.35,2.35,0,0,0,292.28,270.14Z" style="fill:#fff"></path><path d="M294.14,260.55a1.85,1.85,0,0,1-1.31,1.1,2.33,2.33,0,0,1-2.49-1.14,2,2,0,0,1,.63-2.69,1.87,1.87,0,0,1,.9-.31Z" style="fill:#fff"></path><path d="M300.9,269.63a2,2,0,0,1-.63.27,2.36,2.36,0,0,1-2.48-1.16,2,2,0,0,1,.51-2.61C299.16,267.3,300,268.46,300.9,269.63Z" style="fill:#fff"></path><path d="M285.71,244.19l-2.62.47,2.69.62-.15.76L283,245.1l2.15,1.86-.52.54-1.94-2.08c.35.86.69,1.73,1,2.6l-.75.18c-.24-.89-.48-1.79-.73-2.69-.11.89-.23,1.77-.35,2.65l-.77-.22.67-2.56-1.64,2-.6-.57,1.9-1.76-2.5.8-.26-.77,2.62-.48-2.69-.6.15-.76,2.64.92-2.16-1.85.52-.55c.64.7,1.29,1.39,1.94,2.09-.35-.87-.7-1.74-1-2.6l.74-.19.74,2.69c.11-.88.23-1.77.35-2.65l.77.22-.68,2.57,1.65-2,.6.57-1.91,1.76,2.51-.8C285.54,243.68,285.62,243.94,285.71,244.19Z" style="fill:#263238"></path><path d="M304.85,310c1.19,1.93,2.36,3.87,3.59,5.78a63.45,63.45,0,0,0,3.88,5.56,24.34,24.34,0,0,0,4.89,4.61,62.33,62.33,0,0,0,5.7,3.76,36.1,36.1,0,0,1-6-3.29,23,23,0,0,1-5.16-4.64,49.8,49.8,0,0,1-3.79-5.73A64,64,0,0,1,304.85,310Z" style="fill:#263238"></path><path d="M305,314.77a61.77,61.77,0,0,0,3.45,6.54,57.62,57.62,0,0,0,4.2,6.08,35.56,35.56,0,0,0,5.24,5.24c1.91,1.59,3.89,3.12,5.92,4.59a62.83,62.83,0,0,1-6.21-4.22c-1-.77-2-1.56-2.89-2.42a30.77,30.77,0,0,1-2.59-2.77,41.92,41.92,0,0,1-4.22-6.21A36.48,36.48,0,0,1,305,314.77Z" style="fill:#263238"></path><path d="M302.29,312.24c.93,2,1.81,3.94,2.7,5.91s1.76,4,2.73,5.89a39.68,39.68,0,0,0,3.27,5.58c1.22,1.8,2.52,3.56,3.84,5.31a49.92,49.92,0,0,1-4.3-5,34.42,34.42,0,0,1-3.48-5.6c-.93-2-1.8-4-2.59-6S302.93,314.3,302.29,312.24Z" style="fill:#263238"></path><path d="M272.37,315.24c-.75,2.62-1.79,5.82-3,9.4a.69.69,0,0,1-.05.13l-.67,2h0l0,.09c-1.33,3.83-2.86,8-4.48,12.39-.05.15-.11.31-.17.45-.12.34-.24.67-.37,1-2.89,7.76-6,15.92-8.93,23.36q-.78,2.06-1.56,4V325h0a0,0,0,0,1,0,0l.95-1.3c.12-.15.23-.3.34-.46l.16-.21c2-2.72,4-5.32,6-7.73.66-.81,1.31-1.59,2-2.35l1.19-1.39c1.62-1.85,3.2-3.53,4.72-5l.07-.06.5-.5a6.23,6.23,0,0,1,2.05-1.42C273.54,303.63,274.82,306.65,272.37,315.24Z" style="fill:#f7a9a0"></path><path d="M274.72,311.42a93.23,93.23,0,0,1-2,9.29l0,.11c-.41,1.65-.81,3.12-1.11,4.23-.05.16-.09.31-.13.46-.26.94-.43,1.52-.44,1.52l-2.4-.29h-.14c-2.6-.31-5.21-.61-7.81-.9l-1.78-.19-.85-.09-4.81-.5h-.17a0,0,0,0,1,0,0v-4c2.65-3.23,6.57-7.86,9.77-11.1h0c.51-.53,1-1,1.46-1.46.23-.21.44-.42.65-.6s.68-.6,1-.84c2.61-2.06,4.61-3,6.07-3.11C274.58,303.82,275.4,306.57,274.72,311.42Z" style="fill:#263238"></path><path d="M264.93,313.82a9.46,9.46,0,0,0-.69,2.37,10,10,0,0,0-.11,2.51,8.82,8.82,0,0,0,.68-2.37A9.54,9.54,0,0,0,264.93,313.82Zm6.6,11.22a7.47,7.47,0,0,0-.94-.09h-.45a5.52,5.52,0,0,0,.7.33c.19.09.38.15.57.22h0l.06,0h0c0-.15.08-.3.12-.46Z" style="fill:#fff"></path><path d="M268.49,326.73A25.22,25.22,0,0,1,271,327c.31-1.17.6-2.35.92-3.52q.24-.87.51-1.74c.2-.63.39-1.37.57-1.93a.06.06,0,1,1,.12,0c-.15.76-.29,1.32-.43,2s-.25,1.16-.4,1.74c-.32,1.22-.6,2.54-1,3.74a22,22,0,0,1-2.86-.47S268.46,326.73,268.49,326.73Z" style="fill:#263238"></path><path d="M270.61,324.94h-.14l-1.16-.16c-1.1-.13-2.21-.2-3.31-.33-1.52-.18-3-.35-4.57-.51l-.63-.07-1.7-.17h0l-.87-.08c-1.29-.13-2.56-.25-3.84-.35h0c-.41,0-.83-.08-1.24-.1V323l1.37.05h.08c1.24.05,2.48.12,3.73.2l.88.07,1.69.15.62.06c1.53.14,3.05.32,4.57.54,1.12.14,2.22.37,3.33.57l1.23.18C270.65,324.84,270.66,324.93,270.61,324.94Z" style="fill:#263238"></path><path d="M338.06,360.06q-.39-8.07-.76-16.13l2.7.42v16Z" style="fill:#37474f"></path><path d="M338.65,342.87c-3.72-2.93,0-6.79,0-6.79S342.37,341.11,338.65,342.87Z" style="fill:#263238"></path><path d="M338.65,342.87c-2.41-1.9,0-4.4,0-4.4S341.06,341.73,338.65,342.87Z" style="opacity:0.1"></path><path d="M331.88,359.12q-.39-8.07-.76-16.13l2.7.41v16Z" style="fill:#37474f"></path><path d="M332.47,341.92c-3.72-2.9,0-6.79,0-6.79S336.19,340.14,332.47,341.92Z" style="fill:#263238"></path><path d="M332.47,341.92c-2.41-1.88,0-4.4,0-4.4S334.88,340.76,332.47,341.92Z" style="opacity:0.1"></path><path d="M325.69,358.22l-.75-16.13,2.7.39v16Z" style="fill:#37474f"></path><path d="M326.29,341c-3.73-2.87,0-6.79,0-6.79S330,339.21,326.29,341Z" style="fill:#263238"></path><path d="M326.29,341c-2.41-1.86,0-4.4,0-4.4S328.7,339.84,326.29,341Z" style="opacity:0.1"></path><path d="M319.51,357.35q-.37-8.06-.76-16.11l2.7.36v16Z" style="fill:#37474f"></path><path d="M320.1,340.15c-3.72-2.85,0-6.79,0-6.79S323.83,338.32,320.1,340.15Z" style="fill:#263238"></path><path d="M320.1,340.15c-2.41-1.85,0-4.4,0-4.4S322.52,339,320.1,340.15Z" style="opacity:0.1"></path><path d="M349.21,358.1v21.27q-23.1-3.87-46.29-6.63V351.47Q326.11,354.23,349.21,358.1Z" style="fill:#263238"></path><path d="M349.21,358.1v21.27q-23.1-3.87-46.29-6.63V351.47Q326.11,354.23,349.21,358.1Z" style="opacity:0.30000000000000004"></path><path d="M349.21,369.21v1.09c-.4-.07-.76-.14-1.09-.22-2.15-.55-10.05-2-12.51-2.36s-7.72-.67-9.93-1.27c-.59-.17-1.64-.37-2.9-.58-2.37-.42-5.47-.84-7.59-1.1-1-.14-1.79-.22-2.16-.25-1.53-.11-7.92-.7-9.08-1.19a2.64,2.64,0,0,1-1-.68c-.25-.28-.26-.5-.09-.53h.09a15,15,0,0,0,3.81,1.2c1.88.12,8.65.24,10.8.64h.05c1,.2,2.94.65,4.77,1.08h0c2,.47,4,.93,4.57,1a74.75,74.75,0,0,1,9.19,1c1.92.52,7.41,1.39,9.25,1.61C346,368.7,347.54,368.93,349.21,369.21Z" style="fill:#263238"></path><path d="M349.21,357.8v6.72c-1.7-.6-1.46-3-2.83-3.23s-1.34,1.48-2.85,1.23-1.68-3.65-3.17-3.88a.86.86,0,0,0-.36,0c-.67.1-1.07.88-1.71,1.45a2.51,2.51,0,0,1-2.15.59,3.77,3.77,0,0,1-2.32-1.3,5,5,0,0,0-2-1.64,3,3,0,0,0-.45-.11c-2.15-.31-1.23,4.51-3.72,4.15-1.57-.23-1.76-2-2.39-3.09a1.83,1.83,0,0,0-.25-.35,1.2,1.2,0,0,0-.29-.26,1.36,1.36,0,0,0-.2-.11c-.28-.1-.41.06-.51.34s-.16.52-.26.79h0a.92.92,0,0,1-1,.7,1,1,0,0,1-.25-.08,1.06,1.06,0,0,1-.47-.39,5.11,5.11,0,0,1-.59-1.74c-.18-.69-.38-1.29-.89-1.36s-.75.31-1,.77a3.88,3.88,0,0,1-.78,1.16,1.29,1.29,0,0,1-1.06.27c-1.82-.24-1.09-3.86-3.16-4.14-1.8-.23-1.4,1.8-3.44,1.54s-2.17-1.91-3.88-2.13-1.84,2.52-3.77,2.29a1,1,0,0,1-.48-.18c-1.34-.9-.87-4.76-.87-4.76Q325.68,353.85,349.21,357.8Z" style="fill:#263238"></path><path d="M349.21,357.8v6.72c-1.7-.6-1.46-3-2.83-3.23s-1.34,1.48-2.85,1.23-1.68-3.65-3.17-3.88a.86.86,0,0,0-.36,0c-.67.1-1.07.88-1.71,1.45a2.51,2.51,0,0,1-2.15.59,3.77,3.77,0,0,1-2.32-1.3,5,5,0,0,0-2-1.64,3,3,0,0,0-.45-.11c-2.15-.31-1.23,4.51-3.72,4.15-1.57-.23-1.76-2-2.39-3.09a1.83,1.83,0,0,0-.25-.35,1.2,1.2,0,0,0-.29-.26,1.36,1.36,0,0,0-.2-.11c-.28-.1-.41.06-.51.34s-.16.52-.26.79h0a.92.92,0,0,1-1,.7,1,1,0,0,1-.25-.08,1.06,1.06,0,0,1-.47-.39,5.11,5.11,0,0,1-.59-1.74c-.18-.69-.38-1.29-.89-1.36s-.75.31-1,.77a3.88,3.88,0,0,1-.78,1.16,1.29,1.29,0,0,1-1.06.27c-1.82-.24-1.09-3.86-3.16-4.14-1.8-.23-1.4,1.8-3.44,1.54s-2.17-1.91-3.88-2.13-1.84,2.52-3.77,2.29a1,1,0,0,1-.48-.18c-1.34-.9-.87-4.76-.87-4.76Q325.68,353.85,349.21,357.8Z" style="fill:#fff;opacity:0.30000000000000004"></path><path d="M346.92,363.79c-.55-.09-.55.77,0,.86S347.47,363.88,346.92,363.79Z" style="fill:#263238"></path><path d="M309.64,366.93a.61.61,0,0,0-.07-.14.19.19,0,0,0-.33,0,.67.67,0,0,0-.06.12C308.93,367.34,309.88,367.46,309.64,366.93Z" style="fill:#263238"></path><path d="M312.36,370.92c-.42-.05-.42.6,0,.66S312.78,371,312.36,370.92Z" style="fill:#263238"></path><path d="M335.88,371.11c-.42-.07-.42.58,0,.65S336.3,371.17,335.88,371.11Z" style="fill:#263238"></path><path d="M316.17,359.87a.46.46,0,0,0-.63-.08.57.57,0,0,0-.16.6c.09.48.86.58.95.12A.67.67,0,0,0,316.17,359.87Z" style="fill:#263238"></path><path d="M305.7,368.05a.46.46,0,0,0-.64-.07.59.59,0,0,0-.16.6c.09.48.87.57,1,.11A.69.69,0,0,0,305.7,368.05Z" style="fill:#263238"></path><path d="M349.21,379.86v12.57q-18.66-3.14-37.38-5.53l0,0-.63-.11q-6.48-.82-13-1.56V372.68Q323.75,375.59,349.21,379.86Z" style="fill:#263238"></path><path d="M349.21,379.86v12.57q-18.66-3.14-37.38-5.53l0,0-.63-.11q-6.48-.82-13-1.56V372.68Q323.75,375.59,349.21,379.86Z" style="opacity:0.30000000000000004"></path><path d="M307.17,386.15c.79.16,2.26.39,4,.66-3.19-.4-6.37-.79-9.56-1.16,1.43.06,3,.15,4.29.31C306.35,386,306.78,386.08,307.17,386.15Z" style="fill:#263238"></path><path d="M333.82,390l-6-.89A50.3,50.3,0,0,1,333.82,390Z" style="fill:#263238"></path><path d="M349.21,379.37v6.19c-1.06-.73-1.09-2.08-2.37-2.3-1.62-.26-1.19,4.07-3.87,3.63s-3.22-5.31-4.59-5.53-1.41,2.52-3.87,2.15-2.72-3.49-4.81-3.83h0a4,4,0,0,0-1.47.1c-1.47.39-2.81,1.41-4.58,1.16-2.35-.33-4.35-2.61-5.81-2.8s-1.59,3.13-3.29,2.91-1.71-2.34-3.25-2.54-1.74,4.52-4.42,4.18-2.5-6.45-4.27-6.66h0c-1.73-.18-1.81,2.59-3.62,2.39a1,1,0,0,1-.73-.53c-1-1.51-.67-5.76-.67-5.76Q323.4,375,349.21,379.37Z" style="fill:#263238"></path><path d="M349.21,379.37v6.19c-1.06-.73-1.09-2.08-2.37-2.3-1.62-.26-1.19,4.07-3.87,3.63s-3.22-5.31-4.59-5.53-1.41,2.52-3.87,2.15-2.72-3.49-4.81-3.83h0a4,4,0,0,0-1.47.1c-1.47.39-2.81,1.41-4.58,1.16-2.35-.33-4.35-2.61-5.81-2.8s-1.59,3.13-3.29,2.91-1.71-2.34-3.25-2.54-1.74,4.52-4.42,4.18-2.5-6.45-4.27-6.66h0c-1.73-.18-1.81,2.59-3.62,2.39a1,1,0,0,1-.73-.53c-1-1.51-.67-5.76-.67-5.76Q323.4,375,349.21,379.37Z" style="fill:#fff;opacity:0.30000000000000004"></path><path d="M348.82,387.49c.42.07.42-.58,0-.65S348.4,387.42,348.82,387.49Z" style="fill:#263238"></path><path d="M302.72,382c.42,0,.42-.6,0-.65S302.3,381.93,302.72,382Z" style="fill:#263238"></path><path d="M325.32,387c.42.06.42-.59,0-.65S324.9,386.93,325.32,387Z" style="fill:#263238"></path><path d="M355.6,261q-9.39-11.06-18.79-21.93,9.4,1.45,18.79,3.09Z" style="fill:#fff"></path><path d="M246.67,368.35q9.44,10,18.88,20.15-9.44-.75-18.88-1.32Z" style="fill:#fff"></path></g><g id="freepik--character-1--inject-10"><path d="M123.85,239.58a956,956,0,0,1,108.94-1.26V80.56a956,956,0,0,0-108.94,1.26Z" style="fill:#ebebeb"></path><path d="M130.24,232.76a956.9,956.9,0,0,1,96.13-1.11v-145a953.94,953.94,0,0,0-96.13,1.12Z" style="fill:#c7c7c7"></path><path d="M213.91,237.65q9.43-9.18,18.88-18.16v18.83Q223.34,237.89,213.91,237.65Z" style="fill:#fff"></path><path d="M142.65,80.42q-9.41,9.89-18.8,19.94V81.53Q133.24,80.88,142.65,80.42Z" style="fill:#fff"></path><path d="M226.37,167.78v35.56a239.32,239.32,0,0,1-22.3-13.6h0c-3.58-2.43-7.15-4.95-10.61-7.52h0c-4.49-3.34-8.81-6.73-12.75-10.06h0c-.22-.2-.43-.36-.66-.54l-1.91-1.67c-.52-.45-1-.92-1.53-1.4h0c-4.12-3.92-7.47-8.49-6.4-11.18.43-1.07,1.56-1.85,3.63-2.14h.06a18.43,18.43,0,0,1,4.46,0h0a6.18,6.18,0,0,1,.83.09h0c.27,0,.55.06.85.1,1.08.16,2.26.37,3.56.65l.36.08c.61.13,1.23.27,1.88.43,7.89,1.92,18.9,4.94,29.41,8h0l2.37.67Z" style="fill:#d3766a"></path><path d="M226.37,165.88v3.42q-5.66,5.12-11.32,10.3l-1.36,1.24-.27.26q-4.68,4.29-9.35,8.63l-.26.23-.48-.3c-.15-.11-.35-.24-.58-.38l-1.32-.89-1.13-.75c-.21-.16-.43-.3-.66-.46-1.12-.76-2.47-1.7-4-2.78-.6-.43-1.24-.87-1.9-1.36l-.64-.44c-3.27-2.34-7.2-5.22-11.69-8.62L180,172.89l-.76-.58L177,170.57l-.68-.53L175,169l-.17-.14-.76-.61-1.08-.93-.55-.49c-1-.85-1.79-1.64-2.51-2.4v0l-.23-.23-.14-.15-.07-.08-.42-.46c-.11-.13-.21-.24-.3-.36s-.29-.35-.43-.52h0l-.05-.06-.53-.71a9.66,9.66,0,0,1-1.08-1.94,4.63,4.63,0,0,1-.19-.56,4,4,0,0,1-.16-1.08,2,2,0,0,1,0-.43,1.35,1.35,0,0,1,.08-.36.69.69,0,0,1,.05-.13,2,2,0,0,1,.13-.31,1,1,0,0,1,.12-.19l.06-.09.19-.25a3.38,3.38,0,0,1,.27-.26,8.46,8.46,0,0,1,4.58-1.63,38.74,38.74,0,0,1,7.05,0h0a.43.43,0,0,1,.16,0h0l.81.06c1.14.1,2.39.25,3.72.44l.63.1c8.81,1.31,21.13,4.44,30.65,7.19a1.44,1.44,0,0,0,.25.08C219.84,163.84,223.85,165.08,226.37,165.88Z" style="fill:#263238"></path><path d="M198,169.92a2.09,2.09,0,0,0-3-1.1,1.77,1.77,0,0,1-.63.23h0a1.66,1.66,0,0,1-.92-.16,1.77,1.77,0,0,1-.67-.57l-.11-.12c-.2-.21-.39-.44-.61-.64,0,.14.09.27.14.41s.15.37.22.56a2,2,0,0,0,.68.93,2.11,2.11,0,0,0,2.3.1l0,0a1.64,1.64,0,0,1,1.55,0,2.36,2.36,0,0,1,.68.61c.24.26.45.53.71.78C198.2,170.57,198.06,170.26,198,169.92Zm-28.24-6a2,2,0,0,0-.65-.91,1.81,1.81,0,0,0-.29-.19l-.26-.11a.27.27,0,0,0-.12,0l0,0h0c.22.29.47.57.73.88l.42.46c.13.15.28.3.44.46C169.85,164.25,169.77,164.07,169.71,163.89Zm48.19,2a1.83,1.83,0,0,0-.25-.71,2.22,2.22,0,0,0-1.35-1.05,1.61,1.61,0,0,1-1.12-1.09,2,2,0,0,1-.07-.6,1.44,1.44,0,0,1-.25-.08l-.22,0a1.7,1.7,0,0,0-.09.84,2.08,2.08,0,0,0,.72,1.35h0a2.2,2.2,0,0,0,.81.44,1.71,1.71,0,0,1,1.17,1.07,1.85,1.85,0,0,1,.07.89c0,.34-.05.68,0,1,.17-.3.3-.61.45-.92A2.1,2.1,0,0,0,217.9,165.92ZM183.58,155.1a1.9,1.9,0,0,1,0,.8s0,.09,0,.14a9.1,9.1,0,0,0,0,.91,9,9,0,0,0,.4-.83A.61.61,0,0,1,184,156a2.47,2.47,0,0,0,.18-.8Zm29.28,25.7a6,6,0,0,0,.56.3l.27-.26C213.41,180.83,213.15,180.8,212.86,180.8Z" style="fill:#fff"></path><path d="M201.4,184a24.22,24.22,0,0,1,1.75-1.76l1.83-1.78c1.23-1.21,2.48-2.38,3.74-3.55,2.51-2.34,5-4.67,7.57-6.95.7-.62,1.41-1.24,2.13-1.85s1.56-1.21,2.31-1.85c.05,0,.1,0,.06.08-.6.59-1.16,1.23-1.76,1.83s-1.24,1.21-1.88,1.8c-1.25,1.17-2.5,2.33-3.77,3.49-2.49,2.26-5,4.55-7.52,6.79l-2.13,1.87c-.74.65-1.47,1.36-2.27,1.94C201.42,184.06,201.36,184,201.4,184Z" style="fill:#263238"></path><g style="opacity:0.1"><path d="M177,170.57c16.43,12.69,26.86,19.42,26.86,19.4q5.63-5.22,11.24-10.37-23.81-12.36-47.57-23.55C164.48,158.32,167,163,177,170.57Z"></path></g><path d="M205.05,231.06q-37.47-.62-74.81,1.7v-17c1.35-4,2.78-8.15,4.29-12.3.65-1.83,1.33-3.68,2-5.51.05-.13.1-.24.15-.38.64-1.7,1.3-3.4,1.95-5.08h0l.29-.76h0a227.83,227.83,0,0,1,11.37-25.12l.42-.76c.63-1.14,1.27-2.23,1.9-3.25.89-1.46,1.79-2.8,2.66-4a11.77,11.77,0,0,1,3.34-3.09h0a20.28,20.28,0,0,1,9.43-3h0a18.54,18.54,0,0,1,10.78,2.15h0l.18.1h0c.33.22.67.44,1,.69a9.83,9.83,0,0,1,2.13,2.24,62.81,62.81,0,0,1,4.39,7.59h0a138.67,138.67,0,0,1,6.88,17h0c.1.28.2.55.28.83v0c.32,1,.64,1.95.95,2.93l.45,1.47A292.86,292.86,0,0,1,205.05,231.06Z" style="fill:#263238"></path><path d="M177.57,176.79a2,2,0,0,0-1.12-.19,2.13,2.13,0,0,0-1.76,1.57,1.65,1.65,0,0,1-1.05,1.17,1.72,1.72,0,0,1-.89.1,7.21,7.21,0,0,0-1,0c.3.16.63.26.95.41a1.92,1.92,0,0,0,1.13.14,2.17,2.17,0,0,0,1.72-1.62,1.59,1.59,0,0,1,1.06-1.11,1.81,1.81,0,0,1,.91-.06,8.81,8.81,0,0,0,1,0C178.2,177,177.89,176.93,177.57,176.79Zm20.4,32a2,2,0,0,0-2.89,1.33,1.58,1.58,0,0,1-1,1.16,1.93,1.93,0,0,1-.88.07c-.35,0-.69-.05-1,0,.31.17.63.29.94.44a2.24,2.24,0,0,0,1.14.17,2.08,2.08,0,0,0,1.7-1.58,1.54,1.54,0,0,1,1.07-1.1,2.24,2.24,0,0,1,.91,0,8.81,8.81,0,0,0,1,.06C198.61,209.09,198.29,209,198,208.81Zm-36.54-7.69a2.23,2.23,0,0,0-1.12-.17,2.19,2.19,0,0,0-1.76,1.61,1.69,1.69,0,0,1-1,1.19,2,2,0,0,1-.9.1c-.34,0-.68,0-1,0,.32.16.63.28.95.42a2.1,2.1,0,0,0,1.13.12,2.18,2.18,0,0,0,1.7-1.65,1.63,1.63,0,0,1,1.07-1.14,2.07,2.07,0,0,1,.91-.08c.34,0,.69,0,1,0C162.07,201.37,161.74,201.26,161.43,201.12Zm-21-8.26a1.94,1.94,0,0,0-.68-.89l-.22-.13a.94.94,0,0,1-.15-.06,2.22,2.22,0,0,0-.39-.11h0l-.29.76h.16a1.59,1.59,0,0,1,1.22.66c.24.23.44.49.7.72C140.64,193.48,140.5,193.18,140.39,192.86ZM177,215.69a2,2,0,0,0-1.59-1.67,1.63,1.63,0,0,1-1.12-1.06,2.08,2.08,0,0,1,0-.91c0-.34.06-.68.05-1-.19.32-.3.64-.45.95a2,2,0,0,0-.19,1.12,2,2,0,0,0,1.54,1.74,1.58,1.58,0,0,1,1.16,1,1.72,1.72,0,0,1,.08.89c0,.34-.06.69,0,1a8.25,8.25,0,0,0,.45-.95A2,2,0,0,0,177,215.69Zm-25.86-49a1,1,0,0,0-.05-.23.75.75,0,0,0-.05-.16,1.08,1.08,0,0,0-.08-.19,2.39,2.39,0,0,0-.13-.21.24.24,0,0,0-.06-.09l-.42.76a1.32,1.32,0,0,1,.15.29,1.81,1.81,0,0,1,.07.88c0,.35,0,.69,0,1.05.17-.31.3-.64.45-1A2.08,2.08,0,0,0,151.11,166.67Zm6.41,19.53a2,2,0,0,0-1.59-1.65,1.54,1.54,0,0,1-1.11-1,2.2,2.2,0,0,1,0-.9c0-.35,0-.69,0-1.05-.18.31-.3.64-.45,1a2.22,2.22,0,0,0-.19,1.14,2,2,0,0,0,1.54,1.7,1.52,1.52,0,0,1,1.16,1,1.86,1.86,0,0,1,.08.89c0,.35-.06.69-.05,1,.18-.31.3-.63.45-.95A2.1,2.1,0,0,0,157.52,186.2ZM194.7,186c-.16-.48-.31-1-.47-1.44,0,0,0,.1-.07.16a2,2,0,0,0-.19,1.12,2.08,2.08,0,0,0,1.18,1.63Zm-24.78-21.54v0c-.06-.18-.14-.36-.2-.54a2,2,0,0,0-.65-.91,1.81,1.81,0,0,0-.29-.19l-.26-.11a.27.27,0,0,0-.12,0l0,0h0a2.17,2.17,0,0,0-1.59.24,1.59,1.59,0,0,1-1.55.14,1.78,1.78,0,0,1-.68-.56c-.24-.25-.45-.51-.71-.75a8.87,8.87,0,0,0,.36,1,1.93,1.93,0,0,0,.67.9,2.12,2.12,0,0,0,2.33,0,1.58,1.58,0,0,1,1.55-.06,1.9,1.9,0,0,1,.67.58c.24.25.45.51.71.75A3.39,3.39,0,0,0,169.92,164.45Zm13.26,29.76a2.14,2.14,0,0,0-.66-.92,2.07,2.07,0,0,0-2.33-.14,1.58,1.58,0,0,1-1.56.1,1.67,1.67,0,0,1-.68-.56c-.24-.25-.45-.51-.71-.75.1.34.24.65.36,1a2,2,0,0,0,.69.92,2.1,2.1,0,0,0,2.33,0,1.54,1.54,0,0,1,1.53,0,1.87,1.87,0,0,1,.67.6c.24.24.46.51.71.75C183.44,194.85,183.3,194.54,183.18,194.21ZM150.48,221a2.12,2.12,0,0,0-.65-.9,2.08,2.08,0,0,0-2.33,0,1.61,1.61,0,0,1-1.56.16,1.86,1.86,0,0,1-.67-.54,10.24,10.24,0,0,0-.72-.75c.1.35.24.65.36,1a2,2,0,0,0,.69.87,2.14,2.14,0,0,0,2.33,0,1.57,1.57,0,0,1,1.53-.11,2.13,2.13,0,0,1,.67.59c.24.24.45.5.71.73C150.73,221.68,150.6,221.37,150.48,221Z" style="fill:#fff"></path><path d="M154.23,174.84a311.21,311.21,0,0,1-13.17,29.84h0l-.09.18a1.79,1.79,0,0,1-.12.24c-3.3,6.72-6.9,13.77-10.61,20.86V182.36c2.08-2.42,4.1-4.73,6-6.93l.2-.23c1.3-1.49,2.56-2.92,3.76-4.28a33,33,0,0,1,7.61-6.57c.21-.14.41-.25.61-.37a10,10,0,0,1,4.22-1.44C156,162.38,157.47,165.74,154.23,174.84Z" style="fill:#d3766a"></path><path d="M160.31,163.62h0c0,.21-.09.44-.14.65a57.42,57.42,0,0,1-3.71,10.53q-2,4.59-3.87,8.56s0,0,0,0c-5.68,12.27-9.75,19.71-10.66,21.31,0,0,0,0,0,.08h0l-.13.24-.77-.17-2.45-.56h0l-4-.9-4.29-.95V178l-.09,0h.09v-1.64a173,173,0,0,1,16.28-13.76c4-2.82,7.29-4.56,9.67-5a4.64,4.64,0,0,1,2.45,0c1.09.35,1.73,1.28,1.88,2.83A12.41,12.41,0,0,1,160.31,163.62Z" style="fill:#263238"></path><path d="M151.11,166.67a1,1,0,0,0-.05-.23.75.75,0,0,0-.05-.16,1.08,1.08,0,0,0-.08-.19,2.39,2.39,0,0,0-.13-.21.24.24,0,0,0-.06-.09,2,2,0,0,0-1.22-.76,1.49,1.49,0,0,1-1.1-1v0a1.9,1.9,0,0,1,0-.87c0-.35,0-.7,0-1-.17.31-.29.64-.44,1a2.31,2.31,0,0,0-.2,1.13,1.29,1.29,0,0,0,0,.19,2,2,0,0,0,1.5,1.51,1.49,1.49,0,0,1,1,.69,1.32,1.32,0,0,1,.15.29,1.81,1.81,0,0,1,.07.88c0,.35,0,.69,0,1.05.17-.31.3-.64.45-1A2.08,2.08,0,0,0,151.11,166.67Zm-10.72,26.19a1.94,1.94,0,0,0-.68-.89l-.22-.13a.94.94,0,0,1-.15-.06,2.22,2.22,0,0,0-.39-.11h0a2.17,2.17,0,0,0-1.56.36,1.61,1.61,0,0,1-1.55.1,1.65,1.65,0,0,1-.67-.56c-.23-.24-.44-.49-.69-.73.09.34.23.64.34,1a1.88,1.88,0,0,0,.65.89,2.06,2.06,0,0,0,2.34,0,1.48,1.48,0,0,1,.84-.28h.17a1.59,1.59,0,0,1,1.22.66c.24.23.44.49.7.72C140.64,193.48,140.5,193.18,140.39,192.86Zm-3.95-17.66c-.15,0-.29-.12-.44-.18a1.9,1.9,0,0,0-1.12-.12,2.21,2.21,0,0,0-1.75,1.64,1.74,1.74,0,0,1-1,1.22,1.78,1.78,0,0,1-.88.13c-.33,0-.64,0-1,0h-.09l.09,0c.28.14.57.23.87.35a2.1,2.1,0,0,0,1.13.09,2.27,2.27,0,0,0,1.7-1.68,1.68,1.68,0,0,1,1.06-1.17,1.83,1.83,0,0,1,.89-.11h.35a5.48,5.48,0,0,0,.7,0Z" style="fill:#fff"></path><path d="M141.07,198.77c-1-.1-1.94-.36-2.91-.55l-1.62-.32-1.15-.21c-1.71-.35-3.43-.7-5.15-1.07V196l1,.24c1.67.37,3.32.75,5,1.17l.42.1,2,.52c.8.2,1.62.37,2.38.64C141.15,198.7,141.12,198.78,141.07,198.77Z" style="fill:#263238"></path><path d="M153.78,184.22c0-.06-.05-.12-.1-.07a28.77,28.77,0,0,0-2.5,3.29c.27-.57.55-1.14.81-1.71.85-1.85,1.66-3.7,2.51-5.54,0-.07-.07-.12-.1-.05-1.7,3.11-3.52,6.17-5.12,9.34s-3.21,6.34-4.76,9.54c-.86,1.77-1.79,4-2.64,5.78-1-.09-2.23-.42-3.31-.52-.1,0-.11.14,0,.17,1.1.25,2.36.77,3.55.93.15,0,5.92-11.3,8.51-16.73C151.7,187.2,152.77,185.73,153.78,184.22Z" style="fill:#263238"></path><path d="M176.28,168.64c-4.79,1.6-13.76-5-17.55-10.63-.26-.39,0-4.81.13-10.2,0-3.27,0-6.91-.24-10.22-.07-.75,21.22,2.89,21.23,3a53.3,53.3,0,0,0-1,12.92,7.76,7.76,0,0,0,.26,1.34c0,.07,0,.14,0,.23C179.77,157.59,180.91,167.09,176.28,168.64Z" style="fill:#d3766a"></path><path d="M159.9,137.54c1.41,5.5,6,18.6,17.12,17.81a13,13,0,0,0,2.12-.31.78.78,0,0,0,0-.23,8.86,8.86,0,0,1-.25-1.34,52.91,52.91,0,0,1,1-12.92S164.48,137.82,159.9,137.54Z" style="fill:#263238"></path><path d="M153.34,115c-1.42,7.66,4.82,28.24,10.58,32.25,8.35,5.79,20.86,4.95,25.69-4.79,4.69-9.47-3.94-36.5-10.27-40.08C170,97,155.45,103.64,153.34,115Z" style="fill:#d3766a"></path><path d="M153.34,115c-1.42,7.66,4.82,28.24,10.58,32.25,8.35,5.79,20.86,4.95,25.69-4.79,4.69-9.47-3.94-36.5-10.27-40.08C170,97,155.45,103.64,153.34,115Z" style="fill:#d3766a"></path><path d="M172,125.51c0-.05-.09.1-.08.16.4,1.4.63,3.08-.54,3.89,0,0,0,.1,0,.08C172.94,129,172.63,126.77,172,125.51Z" style="fill:#263238"></path><path d="M170.38,124.38c-2.33.45-1.36,5.05.8,4.64S172.33,124,170.38,124.38Z" style="fill:#263238"></path><path d="M180.54,124c0-.06.13,0,.14.1.22,1.45.73,3.06,2.12,3.28,0,0,0,.08,0,.08C181.17,127.59,180.52,125.44,180.54,124Z" style="fill:#263238"></path><path d="M181.54,122.28c2.29-.63,3.35,4,1.23,4.55S179.63,122.81,181.54,122.28Z" style="fill:#263238"></path><path d="M167.48,120.84a19.07,19.07,0,0,0,1.81-.74A3.23,3.23,0,0,0,171,119a1,1,0,0,0-.19-1.2,2.47,2.47,0,0,0-2.51-.13,3.72,3.72,0,0,0-2.05,1.69A1,1,0,0,0,167.48,120.84Z" style="fill:#263238"></path><path d="M182.44,118.16c-.66,0-1.28,0-1.94-.08a3,3,0,0,1-2-.45,1,1,0,0,1-.19-1.2,2.52,2.52,0,0,1,2.32-1,3.62,3.62,0,0,1,2.46.89A1.07,1.07,0,0,1,182.44,118.16Z" style="fill:#263238"></path><path d="M173.36,139.24a2.18,2.18,0,0,0,1.38.57,3.93,3.93,0,0,0,1.47-.71.05.05,0,0,1,.08.06,2,2,0,0,1-1.66,1.19,1.55,1.55,0,0,1-1.4-1C173.19,139.26,173.3,139.2,173.36,139.24Z" style="fill:#263238"></path><path d="M174,134.62a4.94,4.94,0,0,0,3.72,1.44,6.33,6.33,0,0,0,1.77-.31l.33-.11.31-.12a.38.38,0,0,0,.22-.38h0a.66.66,0,0,0,0-.15h0l0-.12c-.2-1.11-.66-2.76-.66-2.76.44.11,2.69.58,2.54,0-1.29-4.71-2.72-9.94-5-14.33a.14.14,0,0,0-.26.1c1.06,4.56,2.92,8.9,4.06,13.48a8.47,8.47,0,0,0-2.45-.19c-.15.08.94,3.17,1,3.68a.12.12,0,0,1,0,.05c-1.81.65-3.33.4-5.39-.43C174,134.41,173.85,134.53,174,134.62Z" style="fill:#263238"></path><path d="M178.68,135.34a5.89,5.89,0,0,1-1.94,2.3,2.68,2.68,0,0,1-1.56.46c-1.21,0-1.46-1.09-1.44-2a6.66,6.66,0,0,1,.23-1.49A7.68,7.68,0,0,0,178.68,135.34Z" style="fill:#263238"></path><path d="M176.74,137.64a2.68,2.68,0,0,1-1.56.46c-1.21,0-1.46-1.09-1.44-2A2.71,2.71,0,0,1,176.74,137.64Z" style="fill:#ff97b8"></path><path d="M155.2,130.48c1.32-.7,3.18-6.45,4-8.77s-1.43-12.46-2-14.73a16.36,16.36,0,0,0-4,7.87C152.59,118.33,153.49,124.42,155.2,130.48Z" style="fill:#263238;opacity:0.2"></path><path d="M176.91,109.46A7.7,7.7,0,0,1,171,113.8a7.49,7.49,0,0,1-6.85-2.69c0-.06-.14,0-.1.08a7.43,7.43,0,0,0,7,3.21,7.89,7.89,0,0,0,6-4.86A.09.09,0,1,0,176.91,109.46Z" style="fill:#263238"></path><path d="M164.59,94c-4.15,1.34-7.35,4.81-8.1,8.1a8.28,8.28,0,0,0,.66,5.45c0,.07.17,0,.15-.06a9.35,9.35,0,0,1,2-9.22A12.08,12.08,0,0,1,169.07,94a7.36,7.36,0,0,1,4.74,2c.12.13.4-.06.3-.2C172.26,93.5,168.34,92.75,164.59,94Z" style="fill:#263238"></path><path d="M191.32,96.07A9.45,9.45,0,0,0,186,92.2c-3-.88-5.83.17-8.63,1.28a.07.07,0,0,0,.05.12c2.38-.94,4.85-1.74,7.42-1.22a9.33,9.33,0,0,1,5.39,3.25,9.13,9.13,0,0,1-.66,12,9.42,9.42,0,0,1-6.88,2.67c-.1,0-.13.15,0,.15a9.35,9.35,0,0,0,8.61-14.33Z" style="fill:#263238"></path><path d="M153,119.38s-6-6.16-3.82-11.46c1.22-3,7.54-4.61,7.54-4.6a12.1,12.1,0,0,1,5.89-6.88c4.9-2.74,11.93-1.47,11.93-1.47s4.2-4.24,9.56-2.86c7.48,1.94,9.32,12,3.64,17-4,3.45-11.29,1.15-11.29,1.15-.57.25-5.71,5.65-11.8,1.59,0,0-2.86,4.42-6.86,3.11A5.91,5.91,0,0,1,153,119.38Z" style="fill:#263238"></path><path d="M159.81,131.59s-5.7-6-8.58-3.81,2,11.5,5.85,12.25a3.88,3.88,0,0,0,4.72-2.8Q160.79,134.41,159.81,131.59Z" style="fill:#d3766a"></path><path d="M152.7,130.4a.05.05,0,0,0,0,.1c2.69.6,4.35,2.74,5.62,5a2.06,2.06,0,0,0-3.14,0c-.06.06,0,.15.09.13a2.25,2.25,0,0,1,2.61.37,10.88,10.88,0,0,1,1.48,1.83c.15.21.54,0,.42-.23l0-.05C159.39,134.27,156.25,130.13,152.7,130.4Z" style="fill:#263238"></path><path d="M157.66,160.37a95.23,95.23,0,0,0,7,8.11c2.42,2.35,5.34,4.47,8.74,4.87s6.63-.19,8-4.19c1.1-3.18,1.08-6.48.68-10.61a.13.13,0,1,1,.25,0c.53,5.32,1,13.53-3.91,15.21-5.46,1.89-10.63-1-14.25-4.76a48.25,48.25,0,0,1-6.66-8.52C157.52,160.39,157.61,160.31,157.66,160.37Z" style="fill:#263238"></path></g><g id="freepik--Cat--inject-10"><rect x="69.17" y="308.28" width="108.87" height="108.87" transform="translate(304.93 700.29) rotate(170.57)" style="fill:#ebebeb"></rect><rect x="75.57" y="314.68" width="96.06" height="96.06" transform="translate(304.93 700.29) rotate(170.57)" style="fill:#455a64"></rect><path d="M169.76,347.49l.07.41c-.89.17-1.77.35-2.65.55-1.63.34-3.25.7-4.86,1.07s-3.22.78-4.81,1.23c-2.27.57-4.51,1.22-6.74,1.9-.94.28-1.88.57-2.81.87-1.5.48-3,1-4.52,1.48l-.28.1c-1.38.47-2.77,1-4.14,1.49a3,3,0,0,0-.32.12l-.14.05a.6.6,0,0,0,.11-.06c.09,0,.18-.08.27-.12,1.37-.65,2.79-1.23,4.19-1.81l.41-.15.34-.14c1.29-.5,2.6-1,3.92-1.45.91-.32,1.84-.63,2.76-.92,2.23-.73,4.5-1.39,6.78-2,3.22-.82,6.46-1.59,9.74-2.17C168,347.78,168.87,347.63,169.76,347.49Z" style="fill:#263238"></path><path d="M170.55,352.23l0,.35-1.6.2-2.22.31-4.43.66c-1.48.24-2.95.48-4.42.76-2.42.42-4.83.89-7.23,1.39l-1.56.33c-1.46.31-2.92.64-4.37,1s-2.92.67-4.38,1c2.84-1,5.73-1.77,8.64-2.49l1.76-.43c2.33-.55,4.68-1,7-1.45,3-.52,5.92-1,8.9-1.28C168,352.44,169.26,352.32,170.55,352.23Z" style="fill:#263238"></path><path d="M140.11,360.27c2.43-.57,4.9-1,7.38-1.3s5-.58,7.45-.76,5-.29,7.49-.29c1.25,0,2.5,0,3.74,0s2.5.09,3.75.17c-2.5.12-5,.19-7.48.32s-5,.27-7.45.45-5,.38-7.45.6c-1.24.11-2.48.24-3.71.37S141.35,360.12,140.11,360.27Z" style="fill:#263238"></path><path d="M119.1,334.74s6.79-11.74,14.61-15.45c.66-.31,2.53,21.53,2.39,22.65S119.1,334.74,119.1,334.74Z" style="fill:#263238"></path><path d="M122.08,335.75s5.17-8.94,11.13-11.76c.5-.24,1.92,16.39,1.82,17.24S122.08,335.75,122.08,335.75Z" style="fill:#ff97b8"></path><path d="M126,411l-21,3.48c-1.21-3.38-2.29-6.47-3.1-8.83v0c-.71-2.08-1.21-3.6-1.39-4.3,0,0,14.75,3.53,21.71,6.35,2,.8,3.33,1.55,3.53,2.14A7.63,7.63,0,0,1,126,411Z" style="fill:#263238"></path><path d="M174.7,402.92,109,413.83a16.73,16.73,0,0,1-7-8.18v0c-.27-.62-.52-1.28-.75-2-1.18-3.63-2.62-8.79-4-14.33-.33-1.28-.67-2.58-1-3.88-.48-1.9-.94-3.83-1.39-5.71l-.15-.65c-.27-1.16-.54-2.31-.8-3.44l-.15-.64c-.22-1-.44-2-.65-2.94,0-.21-.09-.43-.14-.63-1.09-5.07-1.87-9.26-2.08-11.43-.51-5.44,1.13-28.6,10.61-36.68,1.62-1.38,6.63,14.41,6.63,14.41s7.86-4.42,12.8-5.68a10,10,0,0,1,1.18-.25,5.22,5.22,0,0,1,2.42.45,53.89,53.89,0,0,1,10.45,6.09c.37.25.73.51,1.1.78,6.67,4.78,13.32,10.57,14.59,13l.08.16a1.69,1.69,0,0,1,.13.38,7.48,7.48,0,0,1,0,2.66c0,.19,0,.39-.09.59a27.14,27.14,0,0,1-.6,2.75c0,.2-.11.41-.16.62a143.21,143.21,0,0,1-6.56,17.29c-.3.69-.48,1.08-.48,1.08l2.7,1.69c4.54,2.86,14,8.83,21.8,13.8C169.57,394.52,172.14,398.22,174.7,402.92Z" style="fill:#263238"></path><path d="M108.55,386.77c0-.07-.11-.08-.11,0a25.59,25.59,0,0,0,.55,7.95,17.43,17.43,0,0,0,1.4,4,7.13,7.13,0,0,0,1.24,1.7,1.25,1.25,0,0,0,1.29.44c.63-.25.51-1,.5-1.55,0-.25,0-.5,0-.76a10,10,0,0,0,2.08,3.28,8.72,8.72,0,0,0,5.07,2.76.12.12,0,0,0,.06-.23,12.59,12.59,0,0,1-4.64-3,11,11,0,0,1-2.63-4.86.23.23,0,0,0-.45.06,24.68,24.68,0,0,1,0,2.58l0,.53c0,.16.06.45-.16.46s-.61-.54-.74-.71a13.45,13.45,0,0,1-2-4A23.64,23.64,0,0,1,108.55,386.77Z" style="fill:#263238"></path><path d="M121.75,409.23c.27.78.59,1.56.93,2.32l-.26.05a19.4,19.4,0,0,1-.74-2.35S121.74,409.18,121.75,409.23Z" style="fill:#263238"></path><path d="M123.48,411.42l-.41.07c-.29-1.22-.57-2.45-.85-3.68a0,0,0,0,1,0-.05s.06,0,.06,0C122.7,409,123.09,410.21,123.48,411.42Z" style="fill:#263238"></path><path d="M114.62,351.6c-4.81,1.15-6.35,5.42-5.33,9.73a7.42,7.42,0,0,0,9.16,5.29,7.91,7.91,0,0,0,5.7-9.25A7.82,7.82,0,0,0,114.62,351.6Z" style="fill:#263238"></path><path d="M115.3,352.4c-4.52,1.07-6,5.09-5,9.15a7,7,0,0,0,8.61,5,7.45,7.45,0,0,0,5.36-8.7A7.34,7.34,0,0,0,115.3,352.4Z" style="fill:#fff"></path><path d="M116.17,352.88c-3.54.84-4.67,4-3.92,7.16a5.47,5.47,0,0,0,6.74,3.89,5.82,5.82,0,0,0,4.19-6.81A5.73,5.73,0,0,0,116.17,352.88Z" style="fill:#263238"></path><path d="M135.19,342.81c3.47-1.85,6.93.45,8.94,4.21,1.62,3.05,1.23,7.26-2.09,9s-7.33-.79-8.86-3.66S131.43,344.82,135.19,342.81Z" style="fill:#263238"></path><path d="M135.28,343.78c3.26-1.74,6.51.42,8.4,4,1.53,2.86,1.16,6.82-2,8.49s-6.89-.74-8.33-3.43S131.75,345.66,135.28,343.78Z" style="fill:#fff"></path><path d="M136,344c2.54-1.36,5.09.33,6.57,3.1,1.2,2.24.91,5.34-1.54,6.65s-5.39-.59-6.52-2.69S133.2,345.52,136,344Z" style="fill:#263238"></path><path d="M134.38,357c.06.41-2,2.6-2.34,2.69s-3.25-.58-3.43-.95,2.13-1.21,2.73-1.39S134.32,356.55,134.38,357Z" style="fill:#263238"></path><path d="M125.69,363.1a14.7,14.7,0,0,0,2.12,1.1,3.12,3.12,0,0,0,2.12.27,2.61,2.61,0,0,0,1.34-1.51,6.75,6.75,0,0,0,.47-2.17l.1-2.06.86,1.87a9.19,9.19,0,0,0,1,1.62c.37.48.84.91,1.23.8a1.21,1.21,0,0,0,.62-.47,4.16,4.16,0,0,0,.47-.83,11.69,11.69,0,0,0,.65-1.89,7.9,7.9,0,0,1-.24,2,4.41,4.41,0,0,1-.39,1,1.83,1.83,0,0,1-.88.83,1.54,1.54,0,0,1-1.3-.15,3.48,3.48,0,0,1-.87-.73,7.88,7.88,0,0,1-1.18-1.8l1-.19a7,7,0,0,1-.63,2.51,4.17,4.17,0,0,1-.77,1.11,2.78,2.78,0,0,1-1.2.69,2.43,2.43,0,0,1-1.37-.05,5,5,0,0,1-1.16-.51A9.69,9.69,0,0,1,125.69,363.1Z" style="fill:#263238"></path><path d="M95.86,385.43c.27-.24,11.51,2.65,17.92,2.23,9-.58,28.77-10.18,29.54-11s2.51,2,2.51,2.47-21.67,14.11-32,14.23c-7.7.08-16.88-3.86-17.47-4.43C96,388.51,95.26,386,95.86,385.43Z" style="fill:#455a64"></path><path d="M110.21,367.39c-3.24.71-6.46,1.53-9.65,2.41-2.53.71-5.06,1.44-7.56,2.25l-2,.64c-1.58.49-3.13,1.06-4.7,1.6s-3.11,1.14-4.65,1.74-2.87,1.13-4.29,1.72l-.06-.35c1.38-.64,2.75-1.26,4.15-1.84,3.06-1.31,6.19-2.44,9.34-3.5l2-.64c2.5-.78,5-1.5,7.57-2.11,1.62-.39,3.24-.76,4.87-1.09S108.56,367.6,110.21,367.39Z" style="fill:#263238"></path><path d="M109.47,369.63c-1.41.49-2.82,1-4.22,1.52s-2.8,1-4.2,1.57c-2.43.94-4.85,1.89-7.25,2.91l-1.06.45c-1.38.56-2.74,1.16-4.11,1.76l-4.08,1.87-2,1-2,1c-.77.34-1.52.74-2.27,1.12l0-.17c2-1.19,4-2.32,6.11-3.36,2.67-1.37,5.4-2.6,8.15-3.78l1.17-.48c2.39-1,4.79-1.91,7.23-2.75C103.71,371.26,106.57,370.35,109.47,369.63Z" style="fill:#263238"></path><path d="M110.83,371.18c-1.12.55-2.24,1.1-3.35,1.68s-2.22,1.12-3.31,1.71c-2.2,1.17-4.4,2.34-6.57,3.56s-4.34,2.44-6.49,3.69-4.28,2.55-6.44,3.81c1-.75,2-1.47,3-2.19s2.07-1.39,3.13-2.06c2.09-1.36,4.26-2.61,6.43-3.84s4.41-2.36,6.67-3.43S108.48,372,110.83,371.18Z" style="fill:#263238"></path><path d="M96.74,345.94s.51-13.34,5.75-18.64c.39-.39,4.56,11.2,4.27,11.35A47.34,47.34,0,0,0,96.74,345.94Z" style="fill:#ff97b8"></path></g></svg>
